<svg width="100" height="100" viewBox="0 0 100 100" xmlns="http://www.w3.org/2000/svg" xmlns:xlink="http://www.w3.org/1999/xlink"><defs><clipPath id="clip-1"><rect x="0" y="0" width="100" height="100" fill="none" stroke="none"></rect></clipPath></defs><g clip-path="url(#clip-1)" id="planets_1" fill="none" fill-rule="nonzero" stroke="none" stroke-width="1" stroke-linecap="butt" stroke-linejoin="miter" stroke-miterlimit="10" stroke-dasharray="" stroke-dashoffset="0" font-family="none" font-weight="none" font-size="none" text-anchor="none" style="mix-blend-mode: normal"><rect x="0" y="0" width="100" height="100" fill="none" stroke="none"></rect><path d="M43.3637,50c0,-3.6566 2.9712,-6.6208 6.6363,-6.6208c3.6651,0 6.6363,2.9642 6.6363,6.6208c0,3.6566 -2.9712,6.6208 -6.6363,6.6208c-3.6651,0 -6.6363,-2.9642 -6.6363,-6.6208z" fill="#ffffff" stroke="none"></path><path d="M42,50.0079c0,-4.4139 3.5817,-7.9921 8,-7.9921c4.4183,0 8,3.5782 8,7.9921c0,4.4139 -3.5817,7.9921 -8,7.9921c-4.4183,0 -8,-3.5782 -8,-7.9921z" fill="none" stroke="#ffffff"></path><path d="M44.2,40.0721c0,-0.2204 0.1791,-0.3991 0.4,-0.3991c0.2209,0 0.4,0.1787 0.4,0.3991c0,0.2204 -0.1791,0.3991 -0.4,0.3991c-0.2209,0 -0.4,-0.1787 -0.4,-0.3991z" fill="#f2c144" stroke="none"></path><path d="M65.7813,49.4606c0,-0.1929 0.1567,-0.3492 0.35,-0.3492c0.1933,0 0.35,0.1563 0.35,0.3492c0,0.1928 -0.1567,0.3492 -0.35,0.3492c-0.1933,0 -0.35,-0.1563 -0.35,-0.3492z" fill="#7bdbe8" stroke="none"></path><path d="M64,52.1165c0,-0.1653 0.1343,-0.2993 0.3,-0.2993c0.1657,0 0.3,0.134 0.3,0.2993c0,0.1653 -0.1343,0.2993 -0.3,0.2993c-0.1657,0 -0.3,-0.134 -0.3,-0.2993z" fill="#c4f279" stroke="none"></path><path d="M49,62.5012c0,-0.2755 0.2239,-0.4988 0.5,-0.4988c0.2761,0 0.5,0.2233 0.5,0.4988c0,0.2755 -0.2239,0.4988 -0.5,0.4988c-0.2761,0 -0.5,-0.2233 -0.5,-0.4988z" fill="#f2c144" stroke="none"></path><path d="M43.4162,58.3515c0,-0.1928 0.1567,-0.3492 0.35,-0.3492c0.1933,0 0.35,0.1563 0.35,0.3492c0,0.1929 -0.1567,0.3492 -0.35,0.3492c-0.1933,0 -0.35,-0.1563 -0.35,-0.3492z" fill="#7bdbe8" stroke="none"></path><path d="M64,44.0174c0,-0.2204 0.1791,-0.3991 0.4,-0.3991c0.2209,0 0.4,0.1787 0.4,0.3991c0,0.2204 -0.1791,0.3991 -0.4,0.3991c-0.2209,0 -0.4,-0.1787 -0.4,-0.3991z" fill="#f2c144" stroke="none"></path><path d="M46,35.6508c0,-0.1928 0.1567,-0.3492 0.35,-0.3492c0.1933,0 0.35,0.1563 0.35,0.3492c0,0.1929 -0.1567,0.3492 -0.35,0.3492c-0.1933,0 -0.35,-0.1563 -0.35,-0.3492z" fill="#7bdbe8" stroke="none"></path></g></svg>