<svg width="100" height="100" viewBox="0 0 100 100" xmlns="http://www.w3.org/2000/svg" xmlns:xlink="http://www.w3.org/1999/xlink"><defs><clipPath id="clip-1"><rect x="0" y="0" width="100" height="100" fill="none"></rect></clipPath></defs><g clip-path="url(#clip-1)" id="planets_2" fill="none" fill-rule="nonzero" stroke="none" stroke-width="1" stroke-linecap="butt" stroke-linejoin="miter" stroke-miterlimit="10" stroke-dasharray="" stroke-dashoffset="0" font-family="none" font-weight="none" font-size="none" text-anchor="none" style="mix-blend-mode: normal"><rect x="0" y="0" width="100" height="100" fill="none"></rect><path d="M32.4162,57.8779c0,-0.2204 0.1791,-0.3991 0.4,-0.3991c0.2209,0 0.4,0.1787 0.4,0.3991c0,0.2204 -0.1791,0.3991 -0.4,0.3991c-0.2209,0 -0.4,-0.1787 -0.4,-0.3991z" fill="#c4f279"></path><path d="M11.0849,43.1773c0.559,0 1.0193,0.4238 1.0784,0.9683c-0.1698,-0.1106 -0.3725,-0.1748 -0.5901,-0.1748c-0.5992,0 -1.0848,0.4868 -1.0848,1.0874c0,0.0402 0.0022,0.08 0.0064,0.1191c-0.2978,-0.1938 -0.4948,-0.5302 -0.4948,-0.9126c0,-0.6005 0.4857,-1.0874 1.0849,-1.0874z" data-paper-data="{&quot;rotation&quot;:90}" fill="#7bdbe8"></path><path d="M11.8734,40.3991c0,-0.2204 0.1791,-0.3991 0.4,-0.3991c0.2209,0 0.4,0.1787 0.4,0.3991c0,0.2204 -0.1791,0.3991 -0.4,0.3991c-0.2209,0 -0.4,-0.1787 -0.4,-0.3991z" fill="#c4f279"></path><path d="M44,17.551c0,-0.1378 0.1119,-0.2494 0.25,-0.2494c0.1381,0 0.25,0.1117 0.25,0.2494c0,0.1378 -0.1119,0.2494 -0.25,0.2494c-0.1381,0 -0.25,-0.1117 -0.25,-0.2494z" fill="#7bdbe8"></path><path d="M87.5,30.2494c0,-0.1378 0.1119,-0.2494 0.25,-0.2494c0.1381,0 0.25,0.1117 0.25,0.2494c0,0.1378 -0.1119,0.2494 -0.25,0.2494c-0.1381,0 -0.25,-0.1117 -0.25,-0.2494z" fill="#7bdbe8"></path><path d="M63,65.9002c0,-0.3306 0.2686,-0.5986 0.6,-0.5986c0.3314,0 0.6,0.268 0.6,0.5986c0,0.3306 -0.2686,0.5986 -0.6,0.5986c-0.3314,0 -0.6,-0.268 -0.6,-0.5986z" fill="#7bdbe8"></path><path d="M28.4774,86.2494c0,-0.1378 0.1119,-0.2494 0.25,-0.2494c0.1381,0 0.25,0.1117 0.25,0.2494c0,0.1377 -0.1119,0.2494 -0.25,0.2494c-0.1381,0 -0.25,-0.1117 -0.25,-0.2494z" fill="#f2c144"></path><path d="M93,44.7007c0,-0.1653 0.1343,-0.2993 0.3,-0.2993c0.1657,0 0.3,0.134 0.3,0.2993c0,0.1653 -0.1343,0.2993 -0.3,0.2993c-0.1657,0 -0.3,-0.134 -0.3,-0.2993z" fill="#c4f279"></path></g></svg>