<svg width="500" height="500" viewBox="0 0 500 500" xmlns="http://www.w3.org/2000/svg" xmlns:xlink="http://www.w3.org/1999/xlink"><defs><clipPath id="clip-1"><rect x="0" y="0" width="500" height="500" fill="none"></rect></clipPath><linearGradient x1="358.9543" y1="404.6955" x2="389.6478" y2="464.2554" gradientUnits="userSpaceOnUse" id="color-1"><stop offset="0" stop-color="#f2c144"></stop><stop offset="1" stop-color="#ffffff" stop-opacity="0"></stop></linearGradient></defs><g clip-path="url(#clip-1)" id="coffeeShop_bot" fill="none" fill-rule="nonzero" stroke="none" stroke-width="1" stroke-linecap="round" stroke-linejoin="miter" stroke-miterlimit="10" stroke-dasharray="" stroke-dashoffset="0" font-family="none" font-weight="none" font-size="none" text-anchor="none" style="mix-blend-mode: normal"><rect x="0" y="0" width="500" height="500" fill="none"></rect><path d="M121.0409,250l-33.2339,19.2723v12.8824l33.2339,20.4037v36.8002l149.3962,92.4141c6.3731,3.9423 14.4154,3.9911 20.8358,0.1263l102.5303,-61.7176v-41.1392l31.6712,-17.312v-11.1448l-31.6712,-17.2785l-112.9867,63.0992z" fill="#92cc33"></path><path d="M121.0409,250l-33.2339,19.2723l183.0313,109.3705c6.169,3.6863 13.8414,3.7794 20.0981,0.244l134.5379,-78.3014l-31.6712,-17.2785l-102.8467,57.4363c-6.2698,3.5014 -13.9355,3.3727 -20.0842,-0.3373z" fill="#c4f279"></path><polygon points="302.8126,334.1221 334.2126,354.4332 334.3262,497.669 409.8664,452.0436 409.9918,309.5964 378.0168,292.1231" id="Path 1 1 1 1" fill="url(#color-1)"></polygon></g></svg>