<svg width="500" height="500" viewBox="0 0 500 500" xmlns="http://www.w3.org/2000/svg" xmlns:xlink="http://www.w3.org/1999/xlink"><defs><clipPath id="clip-1"><rect x="0" y="0" width="500" height="500" fill="none" stroke="none" stroke-width="1" stroke-linejoin="miter"></rect></clipPath><linearGradient x1="233.4299" y1="292.2057" x2="187.3802" y2="475.6021" gradientUnits="userSpaceOnUse" id="color-1"><stop offset="0" stop-color="#f2c144"></stop><stop offset="1" stop-color="#ffffff" stop-opacity="0"></stop></linearGradient></defs><g clip-path="url(#clip-1)" id="coffeeStand" fill="none" fill-rule="nonzero" stroke="none" stroke-width="none" stroke-linecap="butt" stroke-linejoin="none" stroke-miterlimit="10" stroke-dasharray="" stroke-dashoffset="0" font-family="none" font-weight="none" font-size="none" text-anchor="none" style="mix-blend-mode: normal"><rect x="0" y="0" width="500" height="500" fill="none" stroke="none" stroke-width="1" stroke-linejoin="miter"></rect><g fill="none" stroke-linejoin="round"><path d="M153.3364,301.8935l133.4367,81.9738c6.462,3.9698 14.6133,3.9431 21.0492,-0.0689l38.458,-23.9742l-145.538,-87.2046z" stroke="#7bdbe8" stroke-width="9"></path><path d="M153.3364,301.8935l133.4367,81.9738c6.462,3.9698 14.6133,3.9431 21.0492,-0.0689l38.458,-23.9742l-145.538,-87.2046z" stroke="#ffffff" stroke-width="3"></path></g><g id="Group 1 1" fill="none" stroke-linejoin="round"><path d="M153.3364,281.5357l133.4367,81.9738c6.462,3.9698 14.6133,3.9431 21.0492,-0.0689l38.458,-23.9742l-145.538,-87.2046z" stroke="#7bdbe8" stroke-width="9"></path><path d="M153.3364,281.5357l133.4367,81.9738c6.462,3.9698 14.6133,3.9431 21.0492,-0.0689l38.458,-23.9742l-145.538,-87.2046z" stroke="#ffffff" stroke-width="3"></path></g><path d="M137.0206,216.0635v40.795l150.4142,90.7754c6.3061,3.8057 14.1936,3.8374 20.5301,0.0825l55.0146,-32.6013v-40.4923l-150.7957,-91.9625c-6.7934,-4.1429 -15.3448,-4.0905 -22.0869,0.1354z" fill="#92cc33" stroke="none" stroke-width="1" stroke-linejoin="miter"></path><path d="M211.6559,182.3383c-6.4699,-3.9457 -14.6141,-3.8957 -21.0351,0.1289l-53.6002,33.5963l150.2265,92.0281c6.4011,3.9213 14.4591,3.928 20.8667,0.0172l54.8656,-33.4861z" fill="#c4f279" stroke="none" stroke-width="1" stroke-linejoin="miter"></path><polygon points="233.3882,195.4155 166.7677,234.5326 166.7677,445.6696 249.5125,495.1701 249.8084,285.6582 318.3765,247.4778" id="Path 1 1" fill="url(#color-1)" stroke="none" stroke-width="1" stroke-linejoin="miter"></polygon></g></svg>