<?xml version="1.0" encoding="UTF-8"?>
<svg id="Layer_1" xmlns="http://www.w3.org/2000/svg" xmlns:xlink="http://www.w3.org/1999/xlink" version="1.1" viewBox="0 0 100 100">
  <!-- Generator: Adobe Illustrator 29.5.1, SVG Export Plug-In . SVG Version: 2.1.0 Build 141)  -->
  <defs>
    <style>
      .st0 {
        fill: none;
      }

      .st1 {
        clip-path: url(#clippath-1);
      }

      .st2 {
        clip-path: url(#clippath-3);
      }

      .st3 {
        clip-path: url(#clippath-2);
      }

      .st4 {
        fill: #a66327;
      }

      .st5 {
        clip-path: url(#clippath);
      }
    </style>
    <clipPath id="clippath">
      <rect class="st0" x="8.23" y="4.6" width="40.71" height="91.91"/>
    </clipPath>
    <clipPath id="clippath-1">
      <rect class="st0" x="8.23" y="4.6" width="40.71" height="91.91"/>
    </clipPath>
    <clipPath id="clippath-2">
      <rect class="st0" x="48.94" y="4.6" width="40.71" height="91.91"/>
    </clipPath>
    <clipPath id="clippath-3">
      <rect class="st0" x="48.94" y="4.6" width="40.71" height="91.91"/>
    </clipPath>
  </defs>
  <g id="_x3C_Mirror_Repeat_x3E_">
    <g class="st5">
      <g class="st1">
        <path class="st4" d="M44.73,51.47c-.57-42.22,3.52-45.61-10.55-43.1-2.45.44-9.49,4.27-13.07,10.43-5.47,9.42-8.48,15.89-9.3,27.2-1.26,16.65-.13,21.8,4.77,31.22,5.53,10.62,11.69,13.13,16.15,14.7,17.65,6.28,12.44-8.23,12-40.46h0Z"/>
      </g>
    </g>
  </g>
  <g id="_x3C_Mirror_Repeat_x3E_1" data-name="_x3C_Mirror_Repeat_x3E_">
    <g class="st3">
      <g class="st2">
        <path class="st4" d="M53.15,51.47c.57-42.22-3.52-45.61,10.55-43.1,2.45.44,9.49,4.27,13.07,10.43,5.47,9.42,8.48,15.89,9.3,27.2,1.26,16.65.13,21.8-4.77,31.22-5.53,10.62-11.69,13.13-16.15,14.7-17.65,6.28-12.44-8.23-12-40.46h0Z"/>
      </g>
    </g>
  </g>
</svg>