<?xml version="1.0" encoding="utf-8"?>
<!-- Generator: Adobe Adobe Illustrator 24.2.0, SVG Export Plug-In . SVG Version: 6.00 Build 0)  -->
<svg version="1.1" xmlns="http://www.w3.org/2000/svg" xmlns:xlink="http://www.w3.org/1999/xlink" x="0px" y="0px" width="150px"
	 height="180px" viewBox="0 0 150 180" style="enable-background:new 0 0 150 180;" xml:space="preserve">
<style type="text/css">
	.st0{fill:#FFFFFF;}
	.st1{fill:#90D6ED;}
	.st2{fill:#F3E3BA;}
	.st3{fill:#F7E9EB;}
	.st4{fill:#A36C34;}
	.st5{fill:#EBBEC5;}
	.st6{fill:#F25B44;}
	.st7{clip-path:url(#SVGID_2_);fill:#AEE9F1;}
	.st8{clip-path:url(#SVGID_4_);fill:#AEE9F1;}
	.st9{clip-path:url(#SVGID_6_);fill:#F7E9E1;}
	.st10{clip-path:url(#SVGID_8_);fill:#F7E9E1;}
	.st11{fill:#AEE9F1;}
	.st12{fill:#F7E9E1;}
	.st13{fill:#226A74;}
	.st14{clip-path:url(#SVGID_10_);fill:#226A74;}
	.st15{clip-path:url(#SVGID_12_);fill:#226A74;}
</style>
<g id="Layer_9">
</g>
<g id="Layer_7">
	<g id="Layer_8">
	</g>
</g>
<g id="Layer_3">
	<path class="st0" d="M67.37,89.91c0.26,4.14,0.83,8.35,2.72,12.04c0.31,0.61,0.81,1.19,1.49,1.19c1.38,0,1.72-2.01,1.92-2.75
		c0.05-0.18,0.04-0.76,0.23-0.75c3.65,0.22,4.59,0,7.63-1.25c0.27,0.64,0.45,0.9,1.06,1.8c0.4,0.58,1.74,2.21,2.59,0.98
		c1.13-1.63,1.09-4.12,0.67-7.15c0.52-0.22,0.82-0.43,1.45-0.93c0.62,1.17,2.09,1.82,2.36,0.21c0.23-1.41-0.07-3.56-0.54-4.98
		c-0.57-1.72-1-3.63-1.87-5.22c-0.86-1.59-2.68-2.85-4.43-2.37c-1.65,0.45-13.27,6.87-15.24,9.18"/>
	<path class="st0" d="M70.87,52.83c-0.99,0.09-2.78,5.37-1.58,8.13c0.85,1.97,2.48,3.46,4.02,4.96c0.47,0.45,0.93,0.93,1.21,1.52
		c0.32,0.69,0.34,1.49,0.32,2.25c-0.04,1.41-0.19,2.85-0.86,4.09c0.92-0.01,1.85-0.13,2.69-0.51c0.84-0.38,1.58-1.04,1.91-1.9
		c0.57-1.48-0.17-3.17-1.26-4.31c-1.09-1.15-2.23-2.08-3.42-3.12c-1.47-1.28-3.38-3.16-3.58-5.06c-0.2-1.88-0.16-3.65,0.74-5.35
		c0.09-0.16,0.22-0.35,0.16-0.53C71.1,52.75,70.89,52.83,70.87,52.83z"/>
	<path class="st6" d="M69.98,73.1c1.58-2.01,4.55-2.78,6.9-1.8c0.26,0.11,0.53,0.25,0.69,0.5c0.13,0.21,0.15,0.46,0.17,0.71
		c0.08,1.01,0.14,2.06-0.26,2.99c-0.69,1.62-2.73,2.46-4.42,1.94C71.38,76.92,70.18,75.23,69.98,73.1z"/>
	<path class="st6" d="M86.3,93.7c0.15-0.11,0.84-0.62,0.84-0.62s0.1-0.88,0.09-1.05c-0.04-1.45-0.12-2.16-0.38-3.6
		c-0.17-0.92-0.39-2.04-0.87-2.86c-0.72-1.22-1.34-2.37-1.46-2.12c-0.31,0.61-0.4,2.8-0.71,3C85.83,88.67,86.14,90.5,86.3,93.7z"/>
	<g>
		<g>
			<defs>
				<rect id="SVGID_1_" x="57.54" y="64.17" width="15.25" height="24.09"/>
			</defs>
			<clipPath id="SVGID_2_">
				<use xlink:href="#SVGID_1_"  style="overflow:visible;"/>
			</clipPath>
			<path class="st7" d="M58.55,67.46C55.5,83.8,60.18,87.64,61.94,88.1c5.14,1.34,9.36-6.19,10.77-11.95
				c0.53-2.18-1.49-4.61-8.97-10.84C60.77,62.85,59.06,64.74,58.55,67.46z"/>
		</g>
		<g>
			<defs>
				
					<rect id="SVGID_3_" x="74.65" y="61.58" transform="matrix(0.9551 -0.2963 0.2963 0.9551 -18.119 27.6829)" width="15.25" height="24.09"/>
			</defs>
			<clipPath id="SVGID_4_">
				<use xlink:href="#SVGID_3_"  style="overflow:visible;"/>
			</clipPath>
			<path class="st8" d="M86,63.3c7.76,14.7,4.43,19.76,2.88,20.72c-4.51,2.8-10.78-3.14-13.83-8.22c-1.15-1.92,0.05-4.85,5.36-13.01
				C82.52,59.56,84.71,60.86,86,63.3z"/>
		</g>
	</g>
</g>
<g id="Layer_6">
</g>
<g id="Layer_5">
	<g>
		<g>
			<defs>
				<rect id="SVGID_5_" x="60.05" y="70.6" width="10.72" height="15.07"/>
			</defs>
			<clipPath id="SVGID_6_">
				<use xlink:href="#SVGID_5_"  style="overflow:visible;"/>
			</clipPath>
			<path class="st9" d="M60.41,80.66c1.27,6.91,6.92,6.96,10.33-1.55c0.43-1.06-5.79-6.13-9.23-8.44
				C60.49,69.97,59.49,75.65,60.41,80.66z"/>
		</g>
		<g>
			<defs>
				
					<rect id="SVGID_7_" x="77.56" y="67.72" transform="matrix(0.9472 -0.3208 0.3208 0.9472 -19.7584 30.5737)" width="10.72" height="15.07"/>
			</defs>
			<clipPath id="SVGID_8_">
				<use xlink:href="#SVGID_7_"  style="overflow:visible;"/>
			</clipPath>
			<path class="st10" d="M88.45,76.04c1.01,6.95-4.32,8.81-10.28,1.85c-0.75-0.87,3.52-7.66,6.03-10.96
				C84.96,65.94,87.72,71,88.45,76.04z"/>
		</g>
	</g>
</g>
<g id="Layer_4">
</g>
<g id="Layer_2">
	<path class="st11" d="M83.29,93.04c0.78-2.26,1.64-4.67,1.73-7.31c0.21-6.18-5.67-11.46-11.23-10.77
		c-5.72,0.71-9.89,7.17-7.59,13.86c1.24,3.61,2.98,4.88,4.67,6.56C75.8,100.31,80.89,100.02,83.29,93.04z"/>
	<polygon class="st12" points="78.03,97.45 79.19,95.78 76.47,96.15 	"/>
	<circle class="st13" cx="68.43" cy="92.9" r="2"/>
	<circle class="st13" cx="84.41" cy="89.55" r="2"/>
	<g id="Layer_10">
		<g>
			<g>
				<defs>
					<rect id="SVGID_9_" x="63.21" y="95.29" width="4.32" height="2.74"/>
				</defs>
				<clipPath id="SVGID_10_">
					<use xlink:href="#SVGID_9_"  style="overflow:visible;"/>
				</clipPath>
				<path class="st14" d="M64.07,95.9c-1.18-0.09-1.12-0.68,0.04-0.6c1.76,0.12,0.32,0.02,2.23,0.15c1.6,0.11,1.59,0.72-0.04,0.6
					C65,95.96,65.79,96.02,64.07,95.9z"/>
				<path class="st14" d="M65.5,97.93c-0.71,0.32-0.95-0.22-0.26-0.54c1.05-0.5,0.19-0.09,1.33-0.63c0.96-0.45,1.24,0.09,0.26,0.54
					C66.05,97.67,66.52,97.45,65.5,97.93z"/>
			</g>
			<g>
				<defs>
					
						<rect id="SVGID_11_" x="86.39" y="90.02" transform="matrix(0.9015 -0.4329 0.4329 0.9015 -30.834 47.3346)" width="4.32" height="2.74"/>
				</defs>
				<clipPath id="SVGID_12_">
					<use xlink:href="#SVGID_11_"  style="overflow:visible;"/>
				</clipPath>
				<path class="st15" d="M89.39,90.14c1.02-0.59,0.71-1.1-0.3-0.52c-1.54,0.87-0.28,0.16-1.94,1.1c-1.4,0.79-1.12,1.34,0.3,0.52
					C88.57,90.6,87.89,90.99,89.39,90.14z"/>
				<path class="st15" d="M88.98,92.59c0.78-0.01,0.76-0.61,0-0.6c-1.16,0.01-0.21,0-1.47,0.01c-1.06,0.01-1.08,0.62,0,0.6
					C88.37,92.59,87.85,92.59,88.98,92.59z"/>
			</g>
		</g>
	</g>
</g>
</svg>
