<?xml version="1.0" encoding="utf-8"?>
<!-- Generator: Adobe Adobe Illustrator 24.2.0, SVG Export Plug-In . SVG Version: 6.00 Build 0)  -->
<svg version="1.1" xmlns="http://www.w3.org/2000/svg" xmlns:xlink="http://www.w3.org/1999/xlink" x="0px" y="0px" width="150px"
	 height="180px" viewBox="0 0 150 180" style="enable-background:new 0 0 150 180;" xml:space="preserve">
<style type="text/css">
	.st0{fill:#FFFFFF;}
	.st1{fill:#90D6ED;}
	.st2{fill:#F3E3BA;}
	.st3{fill:#F7E9EB;}
	.st4{fill:#A36C34;}
	.st5{fill:#EBBEC5;}
	.st6{fill:#F25B44;}
	.st7{clip-path:url(#SVGID_2_);fill:#AEE9F1;}
	.st8{clip-path:url(#SVGID_4_);fill:#AEE9F1;}
	.st9{clip-path:url(#SVGID_6_);fill:#F7E9E1;}
	.st10{clip-path:url(#SVGID_8_);fill:#F7E9E1;}
	.st11{fill:#AEE9F1;}
	.st12{fill:#F7E9E1;}
	.st13{fill:#226A74;}
	.st14{clip-path:url(#SVGID_10_);fill:#226A74;}
	.st15{clip-path:url(#SVGID_12_);fill:#226A74;}
</style>
<g id="Layer_9">
	<path class="st0" d="M86.1,95.8c2.85-0.53,5.57-2.16,7.05-4.66c1.38-2.34,1.56-5.2,1.43-7.91c-0.16-3.18-0.71-6.37-0.34-9.54
		s1.86-6.43,4.7-7.88c0.42-0.21,1.05-0.43,1.23,0.07c0.13,0.38-0.27,0.64-0.49,0.81c-2.09,1.65-3.49,4.14-3.59,6.91
		c-0.1,2.66,0.3,5.31,0.57,7.95c0.27,2.65,0.62,5.33,0.17,7.95c-0.45,2.62-1.59,5.35-3.21,7.46c-0.89,1.15-2.43,1.96-3.68,2.7
		s-2.73,1.15-4.17,0.96C85.79,99.04,85.89,97.45,86.1,95.8z"/>
	<path class="st0" d="M60.7,103.19c0.13,1.92,0.26,3.86,0.91,5.67c0.18,0.5,0.41,1,0.8,1.36c0.9,0.82,2.4,0.6,3.36-0.16
		c0.96-0.76,1.2-1.56,1.71-2.67c0.87,0.42,1.63,0.62,2.43,0.7c0,3.33,1.33,4.37,2.35,4.54c0.99,0.16,2.3-0.49,2.94-1.53
		c0.63-1.02,1.53-2.6,1.53-2.6s2.98-0.1,5.56-0.99c1.03,2.18,2.97,2.56,3.56,1.33c0.42-0.87,0.63-1.89,0.48-2.94
		c-0.09-0.61-0.31-1.5,0.21-2.61c0.86-1.84,1.49-3.93,1.07-5.92c-0.34-1.59-0.86-2.9-1.73-4.03c-0.62-0.79-0.95-1.34-1.86-1.75
		c-1.15-0.52-2.37-0.87-3.62-1.02c-1.7-0.21-11.52,1.65-15.24,3.93c-1.51,0.93-2.96,2.04-3.9,3.54
		C60.32,99.55,60.58,101.34,60.7,103.19z"/>
	<path class="st1" d="M74.06,98.58c1.46,0.5,3.21,0.51,4.79,0.67c0.71,3.03,0.33,6.38-1.05,9.17c0.65,0,2.08-0.29,2.08-0.29
		s1.65-4.73,1.19-9.04c0.95-0.07,2.74-0.45,3.56-0.94c0.88-0.52,1.51-1.06,1.69-2.69c0.3-2.79-0.68-3.11-2.09-3.59
		c-0.69-0.24-1.76-0.72-2.48-0.82c-2.92-0.38-5.42,0.25-7.78,1.82c-0.44,0.29-0.87,0.64-1.1,1.11c-0.2,0.41-0.22,0.88-0.24,1.34
		C72.61,96.16,71.93,97.85,74.06,98.58z"/>
</g>
<g id="Layer_7">
	<path class="st2" d="M70.97,83.59c0.27-0.89,0.83-1.66,1.44-2.36c1.16-1.36,2.5-2.54,3.85-3.71c1.74-1.51,3.51-3,5.52-4.11
		c1.01-0.56,2.11-1.03,3.26-1.11c1.16-0.08,2.39,0.26,3.17,1.12c0.55,0.61,0.84,1.41,1.05,2.2c1.27,4.65,0.62,9.62-0.65,14.27
		c-0.56,2.04-1.3,4.17-2.95,5.5c-0.9,0.73-2.01,1.17-3.13,1.49c-2.5,0.71-5.21,0.87-7.7,0.1c-0.95-0.29-1.87-0.73-2.6-1.4
		c-1.57-1.45-2-3.75-2.03-5.89C70.15,87.65,70.35,85.61,70.97,83.59z"/>
	<path class="st3" d="M73.61,91.15c3.45-4.86,6.08-8.15,10.2-11.84c1.33-1.19,1.8-1.07,2.42,0.25c0.21,0.46,0.25,0.98,0.27,1.48
		c0.11,3.02-0.24,6.05-1.04,8.96c-0.25,0.9-0.54,1.81-1.11,2.55c-1.22,1.59-3.37,2.22-5.37,2.29c-1.17,0.04-2.96-0.37-4.54-0.99
		C74.05,93.71,73.73,92.94,73.61,91.15z"/>
	<g id="Layer_8">
		<path class="st2" d="M72.01,79.5c-1.2-6.19-4.34-20.34-10.64-9.11c3.82,2.1-1.08,9.12-3.62,5.8c-4.07,5.81-1.87,14.98,4.85,11.54
			C70.19,89.25,73.79,86.74,72.01,79.5z M65.18,71.09c-0.2,1.18-1.57,0.86-1.5-0.06c0.03-0.34,0.3-0.74,0.72-0.71
			C64.89,70.35,65.17,70.59,65.18,71.09z"/>
	</g>
	<path class="st2" d="M71.43,81.49c-1.89-1.28-6.23-0.92-9.12,0.31c-2.22,0.94-4.26,2.31-5.96,4.01c-1.95,1.96-3.44,4.36-4.34,6.98
		c-0.6,1.77-0.96,4.1-0.1,5.75c0.81,1.55,2.87,2.7,4.5,3.33c2.6,1.01,5.05,1.59,7.83,1.8c2.37,0.18,5.71-0.91,7.67-2.25
		c1.46-1,2.7-2.88,3.26-4.55c1.13-3.32,1.14-6.19,0.34-9.53C74.94,84.87,73.83,83.11,71.43,81.49z"/>
	<circle class="st4" cx="50.85" cy="89.57" r="1.97"/>
	<polygon class="st5" points="53.61,99.03 55.35,98.15 52.43,97.47 	"/>
	<circle class="st4" cx="68.21" cy="96.57" r="1.97"/>
	<path class="st4" d="M45.09,93.8c-0.88-0.19-0.7-0.92,0.16-0.73c2.81,0.6,0.51,0.11,3.57,0.77c1.22,0.26,1.12,1.01-0.16,0.73
		C46.19,94.05,47.87,94.4,45.09,93.8z"/>
	<path class="st4" d="M45.96,96.9c-0.89,0.15-0.99-0.59-0.13-0.74c2.84-0.49-0.44,0.07,2.65-0.46c1.23-0.21,1.41,0.53,0.13,0.74
		C46.13,96.87,48.77,96.42,45.96,96.9z"/>
</g>
<g id="Layer_3">
</g>
<g id="Layer_6">
</g>
<g id="Layer_5">
</g>
<g id="Layer_4">
</g>
<g id="Layer_2">
	<g id="Layer_10">
	</g>
</g>
</svg>
