<svg width="100" height="100" viewBox="0 0 100 100" xmlns="http://www.w3.org/2000/svg" xmlns:xlink="http://www.w3.org/1999/xlink"><defs><clipPath id="clip-1"><rect x="0" y="0" width="100" height="100" fill="none"></rect></clipPath></defs><g clip-path="url(#clip-1)" id="planets_3" fill="none" fill-rule="nonzero" stroke="none" stroke-width="1" stroke-linecap="butt" stroke-linejoin="miter" stroke-miterlimit="10" stroke-dasharray="" stroke-dashoffset="0" font-family="none" font-weight="none" font-size="none" text-anchor="none" style="mix-blend-mode: normal"><rect x="0" y="0" width="100" height="100" fill="none"></rect><path d="M80.2765,12.5639c0.1897,-0.2343 0.5339,-0.2701 0.7687,-0.0799c0.2348,0.1902 0.2714,0.5343 0.0817,0.7685c-0.1897,0.2343 -0.5339,0.2701 -0.7687,0.0799c-0.2348,-0.1902 -0.2714,-0.5343 -0.0817,-0.7686z" data-paper-data="{&quot;rotation&quot;:39}" fill="#f2c144"></path><path d="M78.5181,12.0794c0.3931,-0.4855 1.0849,-0.5872 1.5994,-0.2556c-0.2155,0.0698 -0.4137,0.2006 -0.5668,0.3895c-0.4214,0.5203 -0.3401,1.2845 0.1814,1.7069c0.0349,0.0283 0.071,0.0543 0.1079,0.0781c-0.3778,0.1223 -0.8084,0.0568 -1.1405,-0.2121c-0.5215,-0.4223 -0.6028,-1.1865 -0.1814,-1.7069z" data-paper-data="{&quot;rotation&quot;:39}" fill="#f2c144"></path><path d="M83,93.6143c0,-0.2149 0.1746,-0.3891 0.39,-0.3891c0.2154,0 0.39,0.1742 0.39,0.3891c0,0.2149 -0.1746,0.3891 -0.39,0.3891c-0.2154,0 -0.39,-0.1742 -0.39,-0.3891z" fill="#c4f279"></path><path d="M86,90.8886c0,-0.4907 0.3988,-0.8886 0.8907,-0.8886c0.4919,0 0.8907,0.3978 0.8907,0.8886c0,0.4908 -0.3988,0.8886 -0.8907,0.8886c-0.4919,0 -0.8907,-0.3978 -0.8907,-0.8886z" fill="#7bdbe8"></path><path d="M82.2187,16.3898c0,-0.2153 0.1749,-0.3898 0.3907,-0.3898c0.2158,0 0.3907,0.1745 0.3907,0.3898c0,0.2152 -0.1749,0.3897 -0.3907,0.3897c-0.2158,0 -0.3907,-0.1745 -0.3907,-0.3897z" fill="#c4f279"></path><path d="M89.1,12.9822c0,-0.2479 0.2015,-0.4489 0.45,-0.4489c0.2485,0 0.45,0.201 0.45,0.449c0,0.2479 -0.2015,0.449 -0.45,0.449c-0.2485,0 -0.45,-0.201 -0.45,-0.4489z" fill="#c4f279"></path><path d="M5.748,96c0,-0.4907 0.3988,-0.8886 0.8907,-0.8886c0.4919,0 0.8907,0.3978 0.8907,0.8886c0,0.4908 -0.3988,0.8886 -0.8907,0.8886c-0.4919,0 -0.8907,-0.3978 -0.8907,-0.8886z" fill="#7bdbe8"></path><path d="M28.8,9.4014c0,-0.3306 0.2686,-0.5986 0.6,-0.5986c0.3314,0 0.6,0.268 0.6,0.5986c0,0.3306 -0.2686,0.5986 -0.6,0.5986c-0.3314,0 -0.6,-0.268 -0.6,-0.5986z" fill="#f2c144"></path><path d="M29.3,11.6508c0,-0.1928 0.1567,-0.3492 0.35,-0.3492c0.1933,0 0.35,0.1563 0.35,0.3492c0,0.1928 -0.1567,0.3492 -0.35,0.3492c-0.1933,0 -0.35,-0.1563 -0.35,-0.3492z" fill="#c4f279"></path><path d="M8.5,18.7506c0,-0.1378 0.1119,-0.2494 0.25,-0.2494c0.1381,0 0.25,0.1117 0.25,0.2494c0,0.1377 -0.1119,0.2494 -0.25,0.2494c-0.1381,0 -0.25,-0.1117 -0.25,-0.2494z" fill="#c4f279"></path><path d="M96.3028,66.0839c0,-0.4133 0.3358,-0.7483 0.75,-0.7483c0.4142,0 0.75,0.335 0.75,0.7483c0,0.4133 -0.3358,0.7482 -0.75,0.7482c-0.4142,0 -0.75,-0.335 -0.75,-0.7482z" fill="#f2c144"></path><path d="M61.3924,88.0833c0,0.4752 -0.3602,0.8664 -0.8231,0.9167c0.094,-0.1444 0.1486,-0.3166 0.1486,-0.5016c0,-0.5093 -0.4138,-0.9221 -0.9243,-0.9221c-0.0342,0 -0.068,0.0018 -0.1012,0.0055c0.1648,-0.2531 0.4506,-0.4206 0.7757,-0.4206c0.5105,0 0.9243,0.4128 0.9243,0.9221z" data-paper-data="{&quot;rotation&quot;:180}" fill="#c4f279"></path><path d="M41.4,98.2993c0,-0.1653 0.1343,-0.2993 0.3,-0.2993c0.1657,0 0.3,0.134 0.3,0.2993c0,0.1653 -0.1343,0.2993 -0.3,0.2993c-0.1657,0 -0.3,-0.134 -0.3,-0.2993z" fill="#7bdbe8"></path><path d="M8.3,63.3492c0,-0.1928 0.1567,-0.3492 0.35,-0.3492c0.1933,0 0.35,0.1563 0.35,0.3492c0,0.1928 -0.1567,0.3492 -0.35,0.3492c-0.1933,0 -0.35,-0.1563 -0.35,-0.3492z" fill="#7bdbe8"></path><path d="M6.5187,66.0051c0,-0.1653 0.1343,-0.2993 0.3,-0.2993c0.1657,0 0.3,0.134 0.3,0.2993c0,0.1653 -0.1343,0.2993 -0.3,0.2993c-0.1657,0 -0.3,-0.134 -0.3,-0.2993z" fill="#c4f279"></path><path d="M8,68.4988c0,-0.2755 0.2239,-0.4988 0.5,-0.4988c0.2761,0 0.5,0.2233 0.5,0.4988c0,0.2755 -0.2239,0.4988 -0.5,0.4988c-0.2761,0 -0.5,-0.2233 -0.5,-0.4988z" fill="#f2c144"></path><path d="M5.6093,7.5102c0,-0.2149 0.1746,-0.3891 0.39,-0.3891c0.2154,0 0.39,0.1742 0.39,0.3891c0,0.2149 -0.1746,0.3891 -0.39,0.3891c-0.2154,0 -0.39,-0.1742 -0.39,-0.3891z" fill="#c4f279"></path><path d="M8.6093,4.7845c0,-0.4908 0.3988,-0.8886 0.8907,-0.8886c0.4919,0 0.8907,0.3978 0.8907,0.8886c0,0.4908 -0.3988,0.8886 -0.8907,0.8886c-0.4919,0 -0.8907,-0.3978 -0.8907,-0.8886z" fill="#7bdbe8"></path><path d="M99.4,64.2993c0,-0.1653 0.1343,-0.2993 0.3,-0.2993c0.1657,0 0.3,0.134 0.3,0.2993c0,0.1653 -0.1343,0.2993 -0.3,0.2993c-0.1657,0 -0.3,-0.134 -0.3,-0.2993z" fill="#c4f279"></path><path d="M63,89.3492c0,-0.1928 0.1567,-0.3492 0.35,-0.3492c0.1933,0 0.35,0.1563 0.35,0.3492c0,0.1929 -0.1567,0.3492 -0.35,0.3492c-0.1933,0 -0.35,-0.1563 -0.35,-0.3492z" fill="#f2c144"></path></g></svg>