<?xml version="1.0" encoding="UTF-8"?>
<svg id="Layer_3" data-name="Layer 3" xmlns="http://www.w3.org/2000/svg" viewBox="0 0 150 150">
  <defs>
    <style>
      .cls-1 {
        fill: #fff;
      }
    </style>
  </defs>
  <g>
    <path class="cls-1" d="M66.22,101.57c-.24,0-.48-.06-.7-.19-.6-.33-1.01-1.05-1.27-1.64-.76.86-2.1,2.1-3.29,1.65-1.17-.45-1.2-1.86-.97-2.94-1.09-.05-2.79-.31-2.9-1.43-.11-1.12,2.23-2.2,4.37-2.95-.88-8.53-2.56-21.45-3.71-23.1-1.41-2.03-4.92-2.26-7.74-2.45l-.65-.04c-1.41-.1-3.73.56-5.97,1.19-2.19.62-4.46,1.27-6.1,1.27-3.24,0-16.61-2.67-17.18-2.78l-.37-.32-1.04-2.92.04-.42,2.29-3.86,5.76-13.07,2.24-3.12c-.15-.43-.38-1.34-.46-2.93-.1-2.1,7.26-15.03,11.19-18.18.86-.69,1.57-.94,2.16-.78.97.27,2.25,1.48,2.21,8.85-.02,3.1-.28,6.17-.38,7.32l3.59.61c1.18-2.27,8-14.58,15.29-11.54,4.78,1.99,9.12,7.27,10.31,12.54.7,3.1.17,5.81-1.48,7.65-4.1,4.56-8.6,5.34-10.09,5.6-.16.03-.28.05-.36.07l-.23-.97c.1-.02.24-.05.43-.08,1.4-.24,5.65-.98,9.51-5.28,1.83-2.04,1.69-4.8,1.24-6.76-1.12-4.98-5.21-9.96-9.72-11.84-6.99-2.92-14.11,11.25-14.18,11.4l-.53.27-4.41-.75-.41-.55c.65-6.16.75-15.06-1.05-15.56-.09-.03-.45-.06-1.27.59-3.91,3.13-10.9,15.66-10.82,17.35.1,2.02.47,2.82.47,2.83l-.04.51-2.37,3.29-5.71,12.98-2.2,3.71.87,2.43c1.97.39,13.81,2.71,16.71,2.71,1.5,0,3.7-.62,5.83-1.23,2.43-.69,4.73-1.35,6.32-1.23l.64.04c3.03.2,6.81.46,8.49,2.88,1.69,2.43,3.7,21.77,3.92,23.97l-.34.53c-2.04.68-3.94,1.65-4.07,2.06.03.22,1.21.52,2.55.5l.48.67s-.66,2,.2,2.33c.67.26,2.01-1.05,2.7-2.02l.89.16c.16.59.6,1.64,1.1,1.91.12.07.23.08.35.04.5-.15.68-2.38.38-4.68l.02-.2c.28-.96,6.84-23.51,9.41-26.07,2.51-2.51,17.28-12.46,17.9-12.88l.73.2s1.94,3.88,6.03,4.85c4.05.96,7.93-2.96,7.97-3l.85.43-1.56,9.38-.42.41c-2.72.38-4.91,1.19-4.91,1.6,0,.09.03.16.1.22.38.33,1.53.34,2.23.25l.42.85c-.42.42-1,1.21-.97,1.65,0,.08.04.14.11.19,1.08.82,3.1-1.11,3.12-1.13l.83.19s.74,2.03,1.97,1.95c.38-.23.52-2.5.29-4.77v-.17c1.11-4.42,3.94-16.22,3.86-17.79-.05-.88-.56-2.03-1.16-3.34-.64-1.42-1.37-3.02-1.75-4.81-.74-3.47-.24-9.48-.22-9.74l1,.08c0,.06-.51,6.12.2,9.45.36,1.69,1.06,3.24,1.68,4.61.64,1.41,1.19,2.63,1.25,3.7.1,1.97-3.36,16-3.85,18,.09.9.36,4.36-.51,5.4-.24.29-.52.36-.71.38-1.43.09-2.29-1.15-2.71-1.97-.86.68-2.58,1.75-3.9.75-.3-.23-.47-.55-.5-.92-.03-.52.23-1.07.52-1.51-.64-.02-1.4-.14-1.86-.54-.29-.25-.44-.59-.44-.97,0-1.51,3.53-2.25,5.4-2.54l1.27-7.64c-1.55,1.22-4.58,3.09-7.84,2.32-3.67-.87-5.71-3.71-6.42-4.88-2.55,1.73-15.1,10.26-17.3,12.46-1.97,1.97-7.22,19.01-9.12,25.54.17,1.33.49,5.17-1.09,5.66-.14.04-.28.07-.43.07Z"/>
    <path class="cls-1" d="M28.62,91.13c-1.35,0-2.14-.68-2.54-1.16-.86.52-2.8,1.47-4.14.52-.56-.4-.69-.88-.7-1.22-.02-.68.42-1.34.83-1.81-.65-.24-1.43-.69-1.57-1.5-.04-.25.02-.49.19-.7.64-.8,3.15-1.03,4.3-1.09l5.8-14.44.93.37-5.92,14.74-.44.31c-1.76.07-3.51.39-3.85.7.17.47,1.15.78,1.62.86l.24.88c-.37.3-1.14,1.1-1.12,1.64,0,.11.04.26.28.43.96.68,2.79-.35,3.41-.8l.75.19s.53,1.06,1.94,1.06c.12,0,.21-.04.28-.13.46-.56.32-2.46.08-3.63l.1-.42,14.14-17.14.77.64-13.99,16.96c.16.87.5,3.21-.33,4.22-.27.33-.63.5-1.06.5Z"/>
    <path class="cls-1" d="M108.99,34.57l-2.75-7.73-5.76-6.44-.52,4.21,1.46,3.76-2.46.96-.47,2.88,2.58,5.8,6.7,2.66,1.72,3.35-.52-9.45ZM101.99,36.15l-1.97-4.58,1.64-1.19,3.25,3.61,1.01,3.61-3.92-1.46Z"/>
    <polygon class="cls-1" points="68.82 28.16 78.77 47.18 76.06 64.22 81.82 44.28 68.82 28.16"/>
    <polygon class="cls-1" points="71.44 24.9 84.19 42.58 81.63 58.72 87.03 39.66 71.44 24.9"/>
    <polygon class="cls-1" points="75.14 22.52 88.65 38.04 87.64 53.75 90.82 36.2 75.14 22.52"/>
    <polygon class="cls-1" points="79.11 20.24 91.88 33.72 92.34 41.6 93.14 30.12 79.11 20.24"/>
    <polygon class="cls-1" points="83.59 19.2 94.02 28.6 94.61 39.07 95.59 26.15 83.59 19.2"/>
    <polygon class="cls-1" points="87.84 18.55 96.72 25.19 96.86 29.65 97.64 23.82 87.84 18.55"/>
    <polygon class="cls-1" points="62.67 26.96 64.43 22.84 64.67 24.8 69.09 25.78 62.67 26.96"/>
    <polygon class="cls-1" points="68.05 19.81 66.33 23.88 72.74 22.58 68.63 21.77 68.05 19.81"/>
    <polygon class="cls-1" points="70.88 17.76 69.92 20.91 75.43 20.46 71.39 19.29 70.88 17.76"/>
    <polygon class="cls-1" points="74.87 15.42 73.3 18.65 78.83 18.43 75.53 17.3 74.87 15.42"/>
    <polygon class="cls-1" points="78.72 14.18 77.26 16.82 82.33 17.21 79.41 15.63 78.72 14.18"/>
    <polygon class="cls-1" points="80.77 15.58 86.4 16.38 82.52 13.76 80.77 15.58"/>
    <polygon class="cls-1" points="84.55 14.1 88.72 16.75 91.55 14.86 84.55 14.1"/>
    <polygon class="cls-1" points="90.98 16.54 93.61 14.47 95.7 18.81 90.98 16.54"/>
    <polygon class="cls-1" points="95.59 16.84 99.85 20.62 97.51 20.54 95.59 16.84"/>
    <polygon class="cls-1" points="110.65 32.59 108.22 26.46 116.56 32.99 110.65 32.59"/>
    <polygon class="cls-1" points="114.85 29.98 118.01 32.74 118.19 33.73 123.51 32.08 114.85 29.98"/>
    <polygon class="cls-1" points="121.39 30.38 125.22 31.82 124.09 33.12 129.58 30.48 121.39 30.38"/>
    <polygon class="cls-1" points="128.66 29.48 130.84 29.72 130 31.58 134.2 27.39 128.66 29.48"/>
    <polygon class="cls-1" points="133.32 26.87 135.24 26.35 135.38 28.67 136.95 23.3 133.32 26.87"/>
    <polygon class="cls-1" points="136.27 22.95 137.24 22.5 138.32 24.06 137.15 19.64 136.27 22.95"/>
    <polygon class="cls-1" points="136.51 19.71 137.11 18.94 138.22 19.87 136.65 16.09 136.51 19.71"/>
    <polygon class="cls-1" points="135.95 16.25 136.3 15.44 137.68 15.72 134.93 13.23 135.95 16.25"/>
    <polygon class="cls-1" points="134.41 13.59 134.61 12.71 135.77 12.62 133.09 11.24 134.41 13.59"/>
    <polygon class="cls-1" points="132.55 11.74 132.64 10.97 133.7 10.8 130.81 9.77 132.55 11.74"/>
    <polygon class="cls-1" points="130.35 10.22 130.32 9.49 131.16 9.15 128.71 8.61 130.35 10.22"/>
    <polygon class="cls-1" points="128.15 8.94 128.07 8.33 128.81 7.99 126.52 7.53 128.15 8.94"/>
    <polygon class="cls-1" points="126.36 8.05 126.04 7.4 126.81 7.01 124.85 7.12 126.36 8.05"/>
    <polygon class="cls-1" points="124.53 7.53 124.27 7.09 124.75 6.62 123.14 6.9 124.53 7.53"/>
    <path class="cls-1" d="M55.86,48.03l-8.27-4.76-8.27-.61-7.09,4.02-7.74,13.41-1.95,3.25,1.46,2.52,1.43.23-.31-1.24,1.25,1.39,1.25.2.1-1.71,8-2.52,6.52,1.73,7.81-1.63,5.37-6.89,3.01-2.28-2.58-5.1ZM49.05,60.8l-6.33,1.96-5.11-1.76.79-3.68,6.7-3.25,6.79,1.52-2.84,5.21ZM56.15,56.36l-5.82,7.22-11.9,3.15-5.27-.73-2.49,1.42,6.25.81,18.27-3.49,1.88-4.75-.91-3.63Z"/>
  </g>
  <g>
    <g>
      <g>
        <rect class="cls-1" x="23.85" y="110.1" width="3.23" height="11.34"/>
        <rect class="cls-1" x="25.84" y="110.1" width="6.11" height="3.25"/>
      </g>
      <g>
        <rect class="cls-1" x="47.19" y="110.05" width="3.23" height="11.68"/>
        <rect class="cls-1" x="43.96" y="109.99" width="9.68" height="3.26"/>
      </g>
      <polygon class="cls-1" points="42.6 121.36 32.81 121.36 37.71 110.3 42.6 121.36"/>
    </g>
    <g>
      <g>
        <rect class="cls-1" x="90.53" y="110.13" width="3.23" height="11.68"/>
        <rect class="cls-1" x="97.05" y="110.13" width="3.23" height="11.68"/>
        <rect class="cls-1" x="90.53" y="110.02" width="9.76" height="3.26"/>
      </g>
      <g>
        <rect class="cls-1" x="103.28" y="110.13" width="3.23" height="11.68"/>
        <rect class="cls-1" x="105.59" y="118.56" width="7.37" height="3.25"/>
        <rect class="cls-1" x="105.59" y="110.13" width="7.37" height="3.25"/>
        <rect class="cls-1" x="105.59" y="114.22" width="7.37" height="3.25"/>
      </g>
      <g>
        <rect class="cls-1" x="65.13" y="109.99" width="3.23" height="11.68"/>
        <path class="cls-1" d="M65.13,113.41v8.49h9.69v-8.49h-9.69ZM71.71,119.36h-3.23v-3.4h3.23v3.4Z"/>
      </g>
      <g>
        <rect class="cls-1" x="115.96" y="110.07" width="8.04" height="3.26"/>
        <rect class="cls-1" x="115.96" y="118.56" width="8.04" height="3.26"/>
        <rect class="cls-1" x="116.03" y="114.34" width="8.04" height="3.26"/>
        <rect class="cls-1" x="115.96" y="110.13" width="3.23" height="7.46"/>
        <rect class="cls-1" x="120.84" y="114.35" width="3.23" height="7.46"/>
      </g>
      <path class="cls-1" d="M77.79,110.1v11.68h9.79v-11.68h-9.79ZM84.31,118.61h-3.23v-5.28h3.23v5.28Z"/>
    </g>
    <g>
      <g>
        <rect class="cls-1" x="44.32" y="131.58" width="8.04" height="3.26"/>
        <rect class="cls-1" x="44.32" y="140.06" width="8.04" height="3.26"/>
        <rect class="cls-1" x="44.4" y="135.85" width="8.04" height="3.26"/>
        <rect class="cls-1" x="44.32" y="131.64" width="3.23" height="7.46"/>
        <rect class="cls-1" x="49.2" y="135.86" width="3.23" height="7.46"/>
      </g>
      <g>
        <rect class="cls-1" x="57.76" y="131.7" width="3.23" height="11.68"/>
        <rect class="cls-1" x="54.53" y="131.64" width="9.68" height="3.26"/>
      </g>
      <g>
        <rect class="cls-1" x="66.31" y="131.64" width="3.23" height="11.68"/>
        <rect class="cls-1" x="72.84" y="131.64" width="3.23" height="11.68"/>
        <rect class="cls-1" x="66.35" y="140.06" width="9.68" height="3.26"/>
      </g>
      <g>
        <rect class="cls-1" x="85.2" y="131.61" width="3.23" height="11.68"/>
        <path class="cls-1" d="M78.74,134.77v8.49h9.69v-8.49h-9.69ZM85.2,140.72h-3.23v-3.23h3.23v3.23Z"/>
      </g>
      <rect class="cls-1" x="91.74" y="131.61" width="3.23" height="11.68"/>
      <path class="cls-1" d="M98.29,131.61v11.68h9.79v-11.68h-9.79ZM104.8,140.09h-3.23v-5.28h3.23v5.28Z"/>
    </g>
  </g>
</svg>