<svg width="20" height="40" viewBox="0 0 20 40" xmlns="http://www.w3.org/2000/svg" xmlns:xlink="http://www.w3.org/1999/xlink"><defs><clipPath id="clip-1"><rect x="0" y="0" width="20" height="40" fill-opacity="0" fill="#000000" stroke="none" stroke-width="1"></rect></clipPath><linearGradient x1="-2.4565" y1="2.4091" x2="5.6005" y2="37.2079" gradientUnits="userSpaceOnUse" id="color-1"><stop offset="0" stop-color="#000000"></stop><stop offset="1" stop-color="#4cd649"></stop></linearGradient></defs><g clip-path="url(#clip-1)" id="num5" fill="none" fill-rule="nonzero" stroke="none" stroke-width="none" stroke-linecap="butt" stroke-linejoin="miter" stroke-miterlimit="10" stroke-dasharray="" stroke-dashoffset="0" font-family="none" font-weight="none" font-size="none" text-anchor="none" style="mix-blend-mode: normal"><rect x="0" y="0" width="20" height="40" fill-opacity="0" fill="#000000" stroke="none" stroke-width="1"></rect><path d="M2.1913,2.2888c0,-0.3854 0.2973,-0.6981 0.6647,-0.6993l14.6667,-0.0455c0.369,-0.0011 0.6686,0.3123 0.6686,0.6993v5.4455c0,0.3862 -0.2985,0.6993 -0.6667,0.6993h-7.3333c-0.3682,0 -0.6667,0.3131 -0.6667,0.6993v5.2754c0,0.4624 0.2476,0.7313 0.6667,0.7313c0,0 8,0.4831 8,10.9723c0,0.1487 -0.0034,1.2529 -0.0034,1.3986c0,9.0906 -5.6677,12.587 -15.3299,10.4892c-0.4191,0 -0.6667,-0.2882 -0.6667,-0.6728v-6.4964c0,-0.3846 0.2809,-0.6908 0.6667,-0.6908c0,0 8.3333,3.6643 8.3333,-3.3285c0,-6.9928 -8.3333,-5.5942 -8.3333,-5.5942c-0.4191,0 -0.6667,-0.234 -0.6667,-0.6993z" fill="url(#color-1)" stroke="#ffffff" stroke-width="3"></path></g></svg>