<svg width="20" height="40" viewBox="0 0 20 40" xmlns="http://www.w3.org/2000/svg" xmlns:xlink="http://www.w3.org/1999/xlink"><defs><clipPath id="clip-1"><rect x="0" y="0" width="20" height="40" fill-opacity="0" fill="#000000" stroke="none" stroke-width="1"></rect></clipPath><linearGradient x1="6.8432" y1="-3.0149" x2="16.588" y2="36.691" gradientUnits="userSpaceOnUse" id="color-1"><stop offset="0" stop-color="#000000"></stop><stop offset="1" stop-color="#4cd649"></stop></linearGradient></defs><g clip-path="url(#clip-1)" id="num9" fill="none" fill-rule="nonzero" stroke="none" stroke-width="none" stroke-linecap="butt" stroke-linejoin="miter" stroke-miterlimit="10" stroke-dasharray="" stroke-dashoffset="0" font-family="none" font-weight="none" font-size="none" text-anchor="none" style="mix-blend-mode: normal"><rect x="0" y="0" width="20" height="40" fill-opacity="0" fill="#000000" stroke="none" stroke-width="1"></rect><path d="M12.7904,38.0836c-0.1176,0.2517 -0.3799,0.4139 -0.6695,0.4139h-5.0628c-0.5283,0 -0.8829,-0.5159 -0.6712,-0.9764l4.4548,-17.6003c0.1059,-0.2302 -0.0714,-0.4882 -0.3356,-0.4882c-6.1561,0 -8.8982,-1.6582 -8.8982,-8.4863c0,-6.3115 3.3402,-9.3489 8.425,-9.3489c7.3628,0 8.425,4.8351 8.425,9.3489c0,3.6474 -0.6889,7.0923 -0.6889,7.0923z" data-paper-data="{&quot;rotation&quot;:180}" fill="url(#color-1)" stroke="#ffffff" stroke-width="3"></path><path d="M8.0581,11.0396c0,-2.3054 0.7477,-3.4577 2.0967,-3.4617c1.3961,-0.0041 2.0967,1.237 2.0967,3.4617c0,2.1235 -0.7644,3.0544 -2.0967,3.0544c-1.3262,0 -2.0967,-0.9309 -2.0967,-3.0544z" data-paper-data="{&quot;strokeAlign&quot;:&quot;inner&quot;}" fill="#ffffff" stroke="none" stroke-width="1"></path></g></svg>