<svg width="20" height="40" viewBox="0 0 20 40" xmlns="http://www.w3.org/2000/svg" xmlns:xlink="http://www.w3.org/1999/xlink"><defs><clipPath id="clip-1"><rect x="0" y="0" width="20" height="40" fill-opacity="0" fill="#000000" stroke="none" stroke-width="1"></rect></clipPath><linearGradient x1="13.8049" y1="5.4703" x2="24.2754" y2="36.324" gradientUnits="userSpaceOnUse" id="color-1"><stop offset="0" stop-color="#000000"></stop><stop offset="1" stop-color="#4cd649"></stop></linearGradient></defs><g clip-path="url(#clip-1)" id="numPlus" fill="none" fill-rule="nonzero" stroke="none" stroke-width="none" stroke-linecap="butt" stroke-linejoin="miter" stroke-miterlimit="10" stroke-dasharray="" stroke-dashoffset="0" font-family="none" font-weight="none" font-size="none" text-anchor="none" style="mix-blend-mode: normal"><rect x="0" y="0" width="20" height="40" fill-opacity="0" fill="#000000" stroke="none" stroke-width="1"></rect><path d="M3.2043,22.0624c-0.412,0 -0.7461,-0.334 -0.7461,-0.7461v-3.5395c0,-0.412 0.334,-0.7461 0.7461,-0.7461h3.8412c0.412,0 0.746,-0.334 0.746,-0.7461v-3.5395c0,-0.412 0.334,-0.7461 0.7461,-0.7461h3.8412c0.412,0 0.746,0.334 0.746,0.7461v3.5395c0,0.412 0.334,0.7461 0.7461,0.7461h3.8412c0.412,0 0.7461,0.334 0.7461,0.7461v3.5395c0,0.412 -0.334,0.7461 -0.7461,0.7461h-3.8412c-0.412,0 -0.7461,0.334 -0.7461,0.746v3.5395c0,0.412 -0.334,0.7461 -0.746,0.7461h-3.8412c-0.412,0 -0.7461,-0.334 -0.7461,-0.7461v-3.5395c0,-0.412 -0.334,-0.746 -0.746,-0.746z" fill="url(#color-1)" stroke="#ffffff" stroke-width="3"></path></g></svg>