<svg width="20" height="40" viewBox="0 0 20 40" xmlns="http://www.w3.org/2000/svg" xmlns:xlink="http://www.w3.org/1999/xlink"><defs><clipPath id="clip-1"><rect x="0" y="0" width="20" height="40" fill-opacity="0" fill="#000000" stroke="none" stroke-width="1"></rect></clipPath><linearGradient x1="5.732" y1="0.1806" x2="14.2318" y2="39.13" gradientUnits="userSpaceOnUse" id="color-1"><stop offset="0" stop-color="#000000"></stop><stop offset="1" stop-color="#4cd649"></stop></linearGradient></defs><g clip-path="url(#clip-1)" id="num0" fill="none" fill-rule="nonzero" stroke="none" stroke-width="none" stroke-linecap="butt" stroke-linejoin="miter" stroke-miterlimit="10" stroke-dasharray="" stroke-dashoffset="0" font-family="none" font-weight="none" font-size="none" text-anchor="none" style="mix-blend-mode: normal"><rect x="0" y="0" width="20" height="40" fill-opacity="0" fill="#000000" stroke="none" stroke-width="1"></rect><path d="" fill="#ffffff" stroke="#ffffff" stroke-width="1"></path><path d="M1.4821,20.0031c0,-16.4091 1.796,-18.4314 8.4998,-18.4314c7.127,0 8.5093,2.0233 8.4998,18.4314c-0.0097,16.6389 -2.0595,18.4314 -8.4998,18.4314c-6.6956,0 -8.4998,-1.7924 -8.4998,-18.4314zM9.9821,30.0719c0.5,0 0.5,0 0.5,-9.716c0,-10.3651 0,-10.3638 -0.5,-10.3638c-0.5,0 -0.5,0 -0.5,10.3638c0,9.716 0,9.716 0.5,9.716z" fill="url(#color-1)" stroke="#ffffff" stroke-width="3"></path></g></svg>