<svg width="20" height="40" viewBox="0 0 20 40" xmlns="http://www.w3.org/2000/svg" xmlns:xlink="http://www.w3.org/1999/xlink"><defs><clipPath id="clip-1"><rect x="0" y="0" width="20" height="40" fill-opacity="0" fill="#000000" stroke="none" stroke-width="1"></rect></clipPath><linearGradient x1="-1.2989" y1="3.9835" x2="5.6913" y2="35.9076" gradientUnits="userSpaceOnUse" id="color-1"><stop offset="0" stop-color="#000000"></stop><stop offset="1" stop-color="#4cd649"></stop></linearGradient></defs><g clip-path="url(#clip-1)" id="num1" fill="none" fill-rule="nonzero" stroke="none" stroke-width="none" stroke-linecap="butt" stroke-linejoin="miter" stroke-miterlimit="10" stroke-dasharray="" stroke-dashoffset="0" font-family="none" font-weight="none" font-size="none" text-anchor="none" style="mix-blend-mode: normal"><rect x="0" y="0" width="20" height="40" fill-opacity="0" fill="#000000" stroke="none" stroke-width="1"></rect><path d="M3.5331,9.9627c-0.3572,0.0775 -0.6895,-0.2258 -0.6895,-0.6296v-3.8818c0,-0.2641 0.1459,-0.5012 0.3676,-0.5974l4.0452,-1.6217c0.0672,-0.0292 0.1386,-0.0441 0.2108,-0.0441h4.0119c0.3194,0 0.5784,0.2872 0.5784,0.6415v27.5849c0,0.3543 0.259,0.6415 0.5784,0.6415h3.6219c0.3194,0 0.5784,0.2872 0.5784,0.6415v3.8491c0,0.3543 -0.259,0.6415 -0.5784,0.6415h-12.7247c-0.3194,0 -0.5784,-0.2872 -0.5784,-0.6415v-3.8491c0,-0.3543 0.259,-0.6415 0.5784,-0.6415h3.2466c0.3194,0 0.5784,-0.2872 0.5784,-0.6415v-21.5428c0,-0.4037 -0.3322,-0.7071 -0.6895,-0.6296z" data-paper-data="{&quot;strokeAlign&quot;:&quot;outer&quot;}" fill="url(#color-1)" stroke="#ffffff" stroke-width="3"></path></g></svg>