<svg width="20" height="40" viewBox="0 0 20 40" xmlns="http://www.w3.org/2000/svg" xmlns:xlink="http://www.w3.org/1999/xlink"><defs><clipPath id="clip-1"><rect x="0" y="0" width="20" height="40" fill-opacity="0" fill="#000000" stroke="none" stroke-width="1"></rect></clipPath><linearGradient x1="-3.3744" y1="2.4537" x2="4.9895" y2="37.1946" gradientUnits="userSpaceOnUse" id="color-1"><stop offset="0" stop-color="#000000"></stop><stop offset="1" stop-color="#4cd649"></stop></linearGradient></defs><g clip-path="url(#clip-1)" id="num1" fill="none" fill-rule="nonzero" stroke="none" stroke-width="none" stroke-linecap="butt" stroke-linejoin="miter" stroke-miterlimit="10" stroke-dasharray="" stroke-dashoffset="0" font-family="none" font-weight="none" font-size="none" text-anchor="none" style="mix-blend-mode: normal"><rect x="0" y="0" width="20" height="40" fill-opacity="0" fill="#000000" stroke="none" stroke-width="1"></rect><path d="M2.4071,8.9605c-0.4274,0.0844 -0.8249,-0.2458 -0.8249,-0.6851v-4.2244c0,-0.2874 0.1746,-0.5454 0.4399,-0.6501l4.8401,-1.7648c0.0804,-0.0317 0.1659,-0.048 0.2522,-0.048h4.8003c0.3822,0 0.6921,0.3126 0.6921,0.6981v28.8078c0,0.3856 0.3098,0.6981 0.6921,0.6981h4.3336c0.3822,0 0.6921,0.3126 0.6921,0.6981v5.3997c0,0.3856 -0.3098,0.6981 -0.6921,0.6981h-15.2253c-0.3822,0 -0.6921,-0.3126 -0.6921,-0.6981v-5.3997c0,-0.3856 0.3098,-0.6981 0.6921,-0.6981h3.8846c0.3822,0 0.6921,-0.3126 0.6921,-0.6981v-22.2326c0,-0.4394 -0.3975,-0.7695 -0.8249,-0.6851z" fill="url(#color-1)" stroke="#ffffff" stroke-width="3"></path></g></svg>