<svg width="20" height="40" viewBox="0 0 20 40" xmlns="http://www.w3.org/2000/svg" xmlns:xlink="http://www.w3.org/1999/xlink"><defs><clipPath id="clip-1"><rect x="0" y="0" width="20" height="40" fill-opacity="0" fill="#000000" stroke="none" stroke-width="1"></rect></clipPath><linearGradient x1="-3.2585" y1="2.3423" x2="5.1447" y2="35.8001" gradientUnits="userSpaceOnUse" id="color-1"><stop offset="0" stop-color="#000000"></stop><stop offset="1" stop-color="#4cd649"></stop></linearGradient></defs><g clip-path="url(#clip-1)" id="num2" fill="none" fill-rule="nonzero" stroke="none" stroke-width="none" stroke-linecap="butt" stroke-linejoin="miter" stroke-miterlimit="10" stroke-dasharray="" stroke-dashoffset="0" font-family="none" font-weight="none" font-size="none" text-anchor="none" style="mix-blend-mode: normal"><rect x="0" y="0" width="20" height="40" fill-opacity="0" fill="#000000" stroke="none" stroke-width="1"></rect><path d="M2.5264,12.3881c-0.4633,0.2437 -1.0276,-0.0806 -1.0276,-0.5906v-6.1518c0,-0.2115 0.1029,-0.4106 0.2778,-0.5376l2.6928,-1.9552c1.5297,-1.1107 3.4175,-1.6604 5.3271,-1.551v0c2.2679,0.1298 4.3603,1.2228 5.7159,2.9856l0.1911,0.2485c1.2192,1.5855 1.8518,4.681 1.7961,6.656l-0.1016,3.6022c-0.0199,0.706 -0.2039,1.3987 -0.5384,2.0266l-6.6867,13.4108c-0.2383,0.4475 0.0976,0.9802 0.6181,0.9802l6.8124,-0.0112c0.384,0 0.6953,0.301 0.6953,0.6723v5.643c0,0.3713 -0.3113,0.6723 -0.6953,0.6723h-15.2968c-0.384,0 -0.6953,-0.301 -0.6953,-0.6723v-6.1019c0,-0.1171 0.0316,-0.2322 0.0918,-0.3338l8.7457,-15.4808c0.3244,-0.5484 0.9765,-1.43 0.95,-2.0612c0,0 0.35,-2.844 -2.05,-3.744c-2.7403,-1.0276 -4.5577,1.72 -6.8224,2.294z" fill="url(#color-1)" stroke="#ffffff" stroke-width="3"></path></g></svg>