<svg width="20" height="40" viewBox="0 0 20 40" xmlns="http://www.w3.org/2000/svg" xmlns:xlink="http://www.w3.org/1999/xlink"><defs><clipPath id="clip-1"><rect x="0" y="0" width="20" height="40" fill-opacity="0" fill="#000000" stroke="none" stroke-width="1"></rect></clipPath><linearGradient x1="-0.9857" y1="3.5749" x2="6.017" y2="35.8918" gradientUnits="userSpaceOnUse" id="color-1"><stop offset="0" stop-color="#000000"></stop><stop offset="1" stop-color="#4cd649"></stop></linearGradient></defs><g clip-path="url(#clip-1)" id="num2" fill="none" fill-rule="nonzero" stroke="none" stroke-width="none" stroke-linecap="butt" stroke-linejoin="miter" stroke-miterlimit="10" stroke-dasharray="" stroke-dashoffset="0" font-family="none" font-weight="none" font-size="none" text-anchor="none" style="mix-blend-mode: normal"><rect x="0" y="0" width="20" height="40" fill-opacity="0" fill="#000000" stroke="none" stroke-width="1"></rect><path d="M3.8351,11.0808c-0.3861,0.2354 -0.8563,-0.0779 -0.8563,-0.5705v-3.7447c0,-0.2043 0.0857,-0.3966 0.2315,-0.5193l2.244,-1.8886c1.2748,-1.0729 2.8479,-1.6038 4.4393,-1.4981v0c1.8899,0.1254 3.6336,1.1811 4.7633,2.8838l0.1592,0.24c1.016,1.5314 1.5432,3.4012 1.4968,5.3088l-0.0847,3.4793c-0.0166,0.682 -0.1699,1.351 -0.4486,1.9575l-6.7055,14.3278c-0.1986,0.4322 0.0814,0.9467 0.5151,0.9467l6.8103,-0.0108c0.32,0 0.5794,0.2908 0.5794,0.6494v3.8964c0,0.3587 -0.2594,0.6494 -0.5794,0.6494h-12.7474c-0.32,0 -0.5794,-0.2908 -0.5794,-0.6494v-4.3396c0,-0.1131 0.0264,-0.2243 0.0765,-0.3224l8.2734,-16.069c0.2703,-0.5297 0.402,-1.134 0.3799,-1.7437l-0.0774,-2.1899c-0.0579,-1.6002 -0.5448,-2.4014 -1.8759,-2.9841v0c-1.0664,-0.4669 -2.2623,-0.3825 -3.2681,0.2307z" data-paper-data="{&quot;strokeAlign&quot;:&quot;outer&quot;}" fill="url(#color-1)" stroke="#ffffff" stroke-width="3"></path></g></svg>