<svg width="20" height="40" viewBox="0 0 20 40" xmlns="http://www.w3.org/2000/svg" xmlns:xlink="http://www.w3.org/1999/xlink"><defs><clipPath id="clip-1"><rect x="0" y="0" width="20" height="40" fill-opacity="0" fill="#000000" stroke="none" stroke-width="1"></rect></clipPath><linearGradient x1="-3.0557" y1="2.3855" x2="5.3449" y2="37.0325" gradientUnits="userSpaceOnUse" id="color-1"><stop offset="0" stop-color="#000000"></stop><stop offset="1" stop-color="#4cd649"></stop></linearGradient></defs><g clip-path="url(#clip-1)" id="num3" fill="none" fill-rule="nonzero" stroke="none" stroke-width="none" stroke-linecap="butt" stroke-linejoin="miter" stroke-miterlimit="10" stroke-dasharray="" stroke-dashoffset="0" font-family="none" font-weight="none" font-size="none" text-anchor="none" style="mix-blend-mode: normal"><rect x="0" y="0" width="20" height="40" fill-opacity="0" fill="#000000" stroke="none" stroke-width="1"></rect><path d="M2.8215,11.0948c-0.4622,0.2315 -1.0059,-0.1052 -1.0059,-0.6227v-5.7346c0,-0.2637 0.1488,-0.5048 0.3842,-0.6227c0,0 1.8018,-2.5266 7.9718,-2.5266c6.696,0 8.0862,3.4811 8.0862,7.6585c0,6.266 -3.4423,8.5415 -3.4423,8.5415c0,0 3.4423,1.9019 3.4423,8.1679v2.7849c-0.0003,6.4112 -3.4755,9.7472 -8.3411,9.7472c-4.1706,0 -7.7169,-2.6583 -7.7169,-2.6583c-0.2355,-0.1179 -0.3842,-0.359 -0.3842,-0.6227v-6.1995c0,-0.516 0.5408,-0.5978 1.0027,-0.3695c0,0 6.4396,5.15 8.4396,-0.544c1.7846,-5.0809 -5,-7.0116 -5,-7.0116c-0.4239,0 -0.6951,-0.22 -0.6951,-0.6726v-4.201c0,-0.3593 0.2712,-0.6962 0.6951,-0.6962c0,0 4.5923,-2.3686 5,-4.6745c-0.1,-4.694 -8.4363,0.2567 -8.4363,0.2567z" fill="url(#color-1)" stroke="#ffffff" stroke-width="3"></path><path d="" fill="#ffffff" stroke="#ffffff" stroke-width="1"></path><path d="" fill="#ffffff" stroke="#ffffff" stroke-width="1"></path><path d="" fill="#ffffff" stroke="#ffffff" stroke-width="1"></path><path d="" fill="#ffffff" stroke="#ffffff" stroke-width="1"></path></g></svg>