<svg width="20" height="40" viewBox="0 0 20 40" xmlns="http://www.w3.org/2000/svg" xmlns:xlink="http://www.w3.org/1999/xlink"><defs><clipPath id="clip-1"><rect x="0" y="0" width="20" height="40" fill-opacity="0" fill="#000000" stroke="none" stroke-width="1"></rect></clipPath><linearGradient x1="-1.1368" y1="4.2871" x2="5.96" y2="35.3741" gradientUnits="userSpaceOnUse" id="color-1"><stop offset="0" stop-color="#000000"></stop><stop offset="1" stop-color="#4cd649"></stop></linearGradient></defs><g clip-path="url(#clip-1)" id="num3" fill="none" fill-rule="nonzero" stroke="none" stroke-width="none" stroke-linecap="butt" stroke-linejoin="miter" stroke-miterlimit="10" stroke-dasharray="" stroke-dashoffset="0" font-family="none" font-weight="none" font-size="none" text-anchor="none" style="mix-blend-mode: normal"><rect x="0" y="0" width="20" height="40" fill-opacity="0" fill="#000000" stroke="none" stroke-width="1"></rect><path d="M3.8283,10.5568c-0.3904,0.2077 -0.8498,-0.0944 -0.8498,-0.5587v-3.6007c0,-0.2366 0.1257,-0.4529 0.3246,-0.5587c0,0 1.5222,-2.267 6.7346,-2.267c5.6568,0 6.8312,3.1234 6.8312,6.8716c0,5.6222 -4.6977,8.121 -4.6977,8.121c0,0 4.6977,1.2494 4.6977,6.8716v2.4988c-0.0002,5.7525 -2.9361,8.7457 -7.0466,8.7457c-3.5233,0 -6.5193,-2.3852 -6.5193,-2.3852c-0.1989,-0.1058 -0.3246,-0.3221 -0.3246,-0.5587v-3.5742c0,-0.463 0.4568,-0.5364 0.8471,-0.3315c0,0 6.8077,3.6309 8.8077,-2.1258c0.6989,-6.0897 -5.1598,-6.6418 -5.1598,-6.6418c-0.3581,0 -0.5872,-0.1974 -0.5872,-0.6035v-3.7694c0,-0.3224 0.2291,-0.6247 0.5872,-0.6247c0,0 6.1598,0.1227 4.6977,-4.9763c-2.1712,-5.2231 -8.3429,-0.5323 -8.3429,-0.5323z" data-paper-data="{&quot;strokeAlign&quot;:&quot;outer&quot;}" fill="url(#color-1)" stroke="#ffffff" stroke-width="3"></path><path d="" fill="#ffffff" stroke="#ffffff" stroke-width="1"></path><path d="" fill="#ffffff" stroke="#ffffff" stroke-width="1"></path><path d="" fill="#ffffff" stroke="#ffffff" stroke-width="1"></path><path d="" fill="#ffffff" stroke="#ffffff" stroke-width="1"></path></g></svg>