<svg width="20" height="40" viewBox="0 0 20 40" xmlns="http://www.w3.org/2000/svg" xmlns:xlink="http://www.w3.org/1999/xlink"><defs><clipPath id="clip-1"><rect x="0" y="0" width="20" height="40" fill-opacity="0" fill="#000000" stroke="none" stroke-width="1"></rect></clipPath><linearGradient x1="-3.3975" y1="2.2938" x2="5.0623" y2="36.9407" gradientUnits="userSpaceOnUse" id="color-1"><stop offset="0" stop-color="#000000"></stop><stop offset="1" stop-color="#4cd649"></stop></linearGradient></defs><g clip-path="url(#clip-1)" id="num4" fill="none" fill-rule="nonzero" stroke="none" stroke-width="none" stroke-linecap="butt" stroke-linejoin="miter" stroke-miterlimit="10" stroke-dasharray="" stroke-dashoffset="0" font-family="none" font-weight="none" font-size="none" text-anchor="none" style="mix-blend-mode: normal"><rect x="0" y="0" width="20" height="40" fill-opacity="0" fill="#000000" stroke="none" stroke-width="1"></rect><path d="M15.0246,1.4881c0.3866,0 0.7,0.3117 0.7,0.6962v21.8075c0,0.3845 0.3134,0.6962 0.7,0.6962h1.4c0.3866,0 0.7,0.3117 0.7,0.6962v5.3453c0,0.3845 -0.3134,0.6962 -0.7,0.6962h-1.4c-0.3866,0 -0.7,0.3117 -0.7,0.6962v5.5698c0,0.3845 -0.3134,0.6962 -0.7,0.6962h-5.6423c-0.3866,0 -0.7,-0.3117 -0.7,-0.6962v-5.5698c0,-0.3845 -0.3134,-0.6962 -0.7,-0.6962h-5.5577c-0.3866,0 -0.7,-0.3117 -0.7,-0.6962v-5.9255c0,-0.0768 0.0128,-0.1531 0.0378,-0.2258l6.7577,-22.6198c0.097,-0.2814 0.3631,-0.4704 0.6622,-0.4704z" fill="url(#color-1)" stroke="#ffffff" stroke-width="3"></path><path d="M10.1925,18.6164c0,-0.2172 -0.273,-0.2666 -0.3346,-0.0605l-1.7036,5.6983c-0.1235,0.4132 0.1523,0.8399 0.543,0.8399h0.9229c0.3161,0 0.5723,-0.2857 0.5723,-0.6381z" data-paper-data="{&quot;strokeAlign&quot;:&quot;inner&quot;}" fill="#ffffff" stroke="none" stroke-width="1"></path></g></svg>