<svg width="20" height="40" viewBox="0 0 20 40" xmlns="http://www.w3.org/2000/svg" xmlns:xlink="http://www.w3.org/1999/xlink"><defs><clipPath id="clip-1"><rect x="0" y="0" width="20" height="40" fill-opacity="0" fill="#000000" stroke="none" stroke-width="1"></rect></clipPath><linearGradient x1="-0.9798" y1="3.9082" x2="5.937" y2="35.6632" gradientUnits="userSpaceOnUse" id="color-1"><stop offset="0" stop-color="#000000"></stop><stop offset="1" stop-color="#4cd649"></stop></linearGradient></defs><g clip-path="url(#clip-1)" id="num4" fill="none" fill-rule="nonzero" stroke="none" stroke-width="none" stroke-linecap="butt" stroke-linejoin="miter" stroke-miterlimit="10" stroke-dasharray="" stroke-dashoffset="0" font-family="none" font-weight="none" font-size="none" text-anchor="none" style="mix-blend-mode: normal"><rect x="0" y="0" width="20" height="40" fill-opacity="0" fill="#000000" stroke="none" stroke-width="1"></rect><g><path d="M14.0822,3.1698c0.3161,0 0.5723,0.2857 0.5723,0.6381v21.0577c0,0.3524 0.2562,0.6381 0.5723,0.6381h1.1446c0.3161,0 0.5723,0.2857 0.5723,0.6381v3.8287c0,0.3524 -0.2562,0.6381 -0.5723,0.6381h-1.1446c-0.3161,0 -0.5723,0.2857 -0.5723,0.6381v5.1049c0,0.3524 -0.2562,0.6381 -0.5723,0.6381h-3.4339c-0.3161,0 -0.5723,-0.2857 -0.5723,-0.6381v-5.1049c0,-0.3524 -0.2562,-0.6381 -0.5723,-0.6381h-5.7232c-0.3161,0 -0.5723,-0.2857 -0.5723,-0.6381v-4.3604c0,-0.0704 0.0105,-0.1403 0.0309,-0.207l6.7044,-21.8021c0.0793,-0.2579 0.2968,-0.4312 0.5414,-0.4312z" data-paper-data="{&quot;strokeAlign&quot;:&quot;outer&quot;}" fill="url(#color-1)" stroke="#ffffff" stroke-width="3"></path><path d="M10.0759,19.026c0,-0.2172 -0.273,-0.2666 -0.3346,-0.0605l-1.7036,5.6983c-0.1235,0.4132 0.1523,0.8399 0.543,0.8399h0.9229c0.3161,0 0.5723,-0.2857 0.5723,-0.6381z" data-paper-data="{&quot;strokeAlign&quot;:&quot;inner&quot;}" fill="#ffffff" stroke="#ffffff" stroke-width="1"></path></g></g></svg>