<svg width="20" height="40" viewBox="0 0 20 40" xmlns="http://www.w3.org/2000/svg" xmlns:xlink="http://www.w3.org/1999/xlink"><defs><clipPath id="clip-1"><rect x="0" y="0" width="20" height="40" fill-opacity="0" fill="#000000" stroke="none" stroke-width="1"></rect></clipPath><linearGradient x1="-1.0953" y1="3.9762" x2="5.9035" y2="35.6801" gradientUnits="userSpaceOnUse" id="color-1"><stop offset="0" stop-color="#000000"></stop><stop offset="1" stop-color="#4cd649"></stop></linearGradient></defs><g clip-path="url(#clip-1)" id="num5" fill="none" fill-rule="nonzero" stroke="none" stroke-width="none" stroke-linecap="butt" stroke-linejoin="miter" stroke-miterlimit="10" stroke-dasharray="" stroke-dashoffset="0" font-family="none" font-weight="none" font-size="none" text-anchor="none" style="mix-blend-mode: normal"><rect x="0" y="0" width="20" height="40" fill-opacity="0" fill="#000000" stroke="none" stroke-width="1"></rect><path d="M2.9421,3.8666c0,-0.3511 0.2582,-0.636 0.5774,-0.6371l12.7403,-0.0414c0.3205,-0.001 0.5808,0.2845 0.5808,0.6371v3.8658c0,0.3518 -0.2593,0.6371 -0.5791,0.6371h-8.1075c-0.3198,0 -0.5791,0.2852 -0.5791,0.6371v6.9788c0,0.4212 0.215,0.6663 0.5791,0.6663c0,0 8.6866,-0.6371 8.6866,8.9192c0,0.1355 -0.003,1.1415 -0.003,1.2742c0,8.2821 -4.9233,11.4675 -13.3164,9.5563c-0.3641,0 -0.5791,-0.2626 -0.5791,-0.613v-3.8544c0,-0.3504 0.244,-0.6293 0.5791,-0.6293c0,0 8.6866,1.2742 8.6866,-5.0967c0,-6.3709 -8.6866,-5.0967 -8.6866,-5.0967c-0.3641,0 -0.5791,-0.2132 -0.5791,-0.6371z" data-paper-data="{&quot;strokeAlign&quot;:&quot;outer&quot;}" fill="url(#color-1)" stroke="#ffffff" stroke-width="3"></path></g></svg>