<svg width="20" height="40" viewBox="0 0 20 40" xmlns="http://www.w3.org/2000/svg" xmlns:xlink="http://www.w3.org/1999/xlink"><defs><clipPath id="clip-1"><rect x="0" y="0" width="20" height="40" fill-opacity="0" fill="#000000" stroke="none" stroke-width="1"></rect></clipPath><linearGradient x1="-2.6471" y1="2.3684" x2="5.7602" y2="37.1093" gradientUnits="userSpaceOnUse" id="color-1"><stop offset="0" stop-color="#000000"></stop><stop offset="1" stop-color="#4cd649"></stop></linearGradient></defs><g clip-path="url(#clip-1)" id="num6" fill="none" fill-rule="nonzero" stroke="none" stroke-width="none" stroke-linecap="butt" stroke-linejoin="miter" stroke-miterlimit="10" stroke-dasharray="" stroke-dashoffset="0" font-family="none" font-weight="none" font-size="none" text-anchor="none" style="mix-blend-mode: normal"><rect x="0" y="0" width="20" height="40" fill-opacity="0" fill="#000000" stroke="none" stroke-width="1"></rect><path d="M8.0223,1.9586c0.1117,-0.2521 0.3608,-0.4146 0.6357,-0.4146h6.3627c0.5017,0 0.8384,0.5167 0.6373,0.9779l-5.1781,13.1935c-0.1005,0.2306 0.0678,0.489 0.3187,0.489c0,0 -0.2687,0 0.8595,0c7.6522,0 7,4.8868 7,11.1698c0,6.3217 0,11.1698 -7.6522,11.1698c-7.6522,0 -8.3478,-5.5849 -8.3478,-11.1698c0,-3.6533 0,-6.8106 0,-6.8106c0,-1.9536 0.2094,-5.6844 1,-7.4696z" fill="url(#color-1)" stroke="#ffffff" stroke-width="3"></path><path d="M8.658,27.7527c0,-4.7671 0.5883,-5.4027 2.0589,-5.4027c1.4707,0 2.0589,0.6918 2.0589,5.4027c0,4.1315 -0.5883,4.7671 -2.0589,4.7671c-1.4707,0 -2.0589,-0.6356 -2.0589,-4.7671z" data-paper-data="{&quot;strokeAlign&quot;:&quot;inner&quot;}" fill="#ffffff" stroke="none" stroke-width="1"></path></g></svg>