<svg width="20" height="40" viewBox="0 0 20 40" xmlns="http://www.w3.org/2000/svg" xmlns:xlink="http://www.w3.org/1999/xlink"><defs><clipPath id="clip-1"><rect x="0" y="0" width="20" height="40" fill-opacity="0" fill="#000000" stroke="none" stroke-width="1"></rect></clipPath><linearGradient x1="-1.2942" y1="3.8647" x2="5.8153" y2="35.4952" gradientUnits="userSpaceOnUse" id="color-1"><stop offset="0" stop-color="#000000"></stop><stop offset="1" stop-color="#4cd649"></stop></linearGradient></defs><g clip-path="url(#clip-1)" id="num6" fill="none" fill-rule="nonzero" stroke="none" stroke-width="none" stroke-linecap="butt" stroke-linejoin="miter" stroke-miterlimit="10" stroke-dasharray="" stroke-dashoffset="0" font-family="none" font-weight="none" font-size="none" text-anchor="none" style="mix-blend-mode: normal"><rect x="0" y="0" width="20" height="40" fill-opacity="0" fill="#000000" stroke="none" stroke-width="1"></rect><g stroke="#ffffff"><path d="M7.7428,3.4916c0.0944,-0.2295 0.3051,-0.3775 0.5376,-0.3775h3.4244c0.4242,0 0.709,0.4704 0.5389,0.8904l-3.5771,12.0123c-0.085,0.21 0.0574,0.4452 0.2695,0.4452c0,0 -0.2272,0 0.7268,0c6.471,0 7.0592,4.4493 7.0592,10.1698c0,5.7557 0,10.1698 -6.471,10.1698c-6.471,0 -7.0592,-5.0849 -7.0592,-10.1698c0,-3.3262 0,-6.2008 0,-6.2008c0,-1.7787 0.3455,-3.5376 1.014,-5.1629z" data-paper-data="{&quot;strokeAlign&quot;:&quot;outer&quot;}" fill="url(#color-1)" stroke-width="3"></path><path d="M7.8981,26.9496c0,-4.7671 0.5883,-5.4027 2.0589,-5.4027c1.4707,0 2.0589,0.6918 2.0589,5.4027c0,4.1315 -0.5883,4.7671 -2.0589,4.7671c-1.4707,0 -2.0589,-0.6356 -2.0589,-4.7671z" data-paper-data="{&quot;strokeAlign&quot;:&quot;inner&quot;}" fill="#ffffff" stroke-width="1"></path></g></g></svg>