<svg width="20" height="40" viewBox="0 0 20 40" xmlns="http://www.w3.org/2000/svg" xmlns:xlink="http://www.w3.org/1999/xlink"><defs><clipPath id="clip-1"><rect x="0" y="0" width="20" height="40" fill-opacity="0" fill="#000000" stroke="none" stroke-width="1"></rect></clipPath><linearGradient x1="-1.0892" y1="3.9442" x2="6.1153" y2="35.4927" gradientUnits="userSpaceOnUse" id="color-1"><stop offset="0" stop-color="#000000"></stop><stop offset="1" stop-color="#4cd649"></stop></linearGradient></defs><g clip-path="url(#clip-1)" id="num7" fill="none" fill-rule="nonzero" stroke="none" stroke-width="none" stroke-linecap="butt" stroke-linejoin="miter" stroke-miterlimit="10" stroke-dasharray="" stroke-dashoffset="0" font-family="none" font-weight="none" font-size="none" text-anchor="none" style="mix-blend-mode: normal"><rect x="0" y="0" width="20" height="40" fill-opacity="0" fill="#000000" stroke="none" stroke-width="1"></rect><path d="M3.2509,3.8221c0,-0.3501 0.2669,-0.634 0.5961,-0.634h12.3677c0.3826,0 0.6662,0.3779 0.5813,0.7747l-6.9254,32.3591c-0.0621,0.2899 -0.3052,0.495 -0.5848,0.4933l-3.508,-0.0223c-0.3799,-0.0024 -0.6608,-0.3771 -0.5784,-0.7715l5.6398,-26.9901c0.0827,-0.3959 -0.2006,-0.7715 -0.5819,-0.7715h-6.4104c-0.3292,0 -0.5961,-0.2838 -0.5961,-0.634z" data-paper-data="{&quot;strokeAlign&quot;:&quot;outer&quot;}" fill="url(#color-1)" stroke="#ffffff" stroke-width="3"></path></g></svg>