<svg width="20" height="40" viewBox="0 0 20 40" xmlns="http://www.w3.org/2000/svg" xmlns:xlink="http://www.w3.org/1999/xlink"><defs><clipPath id="clip-1"><rect x="0" y="0" width="20" height="40" fill-opacity="0" fill="#000000" stroke="none" stroke-width="1"></rect></clipPath><linearGradient x1="-1.1475" y1="3.9175" x2="5.9153" y2="35.5779" gradientUnits="userSpaceOnUse" id="color-1"><stop offset="0" stop-color="#000000"></stop><stop offset="1" stop-color="#4cd649"></stop></linearGradient></defs><g clip-path="url(#clip-1)" id="num8" fill="none" fill-rule="nonzero" stroke="none" stroke-width="none" stroke-linecap="butt" stroke-linejoin="miter" stroke-miterlimit="10" stroke-dasharray="" stroke-dashoffset="0" font-family="none" font-weight="none" font-size="none" text-anchor="none" style="mix-blend-mode: normal"><rect x="0" y="0" width="20" height="40" fill-opacity="0" fill="#000000" stroke="none" stroke-width="1"></rect><g stroke="#ffffff"><path d="M9.9181,3.1512c4.6752,0 7.0128,2.5448 7.0128,7.6345c0,5.7259 -3.5064,6.9983 -3.5064,6.9983c0,0 3.5064,1.2619 3.5064,8.2708c0,6.3621 -1.1688,10.8156 -7.0128,10.8156c-5.844,0 -7.0128,-4.4217 -7.0128,-10.8156c0,-6.9983 3.5064,-8.2708 3.5064,-8.2708c0,0 -3.5064,-1.9086 -3.5064,-6.9983c0,-4.4535 2.3376,-7.6345 7.0128,-7.6345z" data-paper-data="{&quot;strokeAlign&quot;:&quot;outer&quot;}" fill="url(#color-1)" stroke-width="3"></path><path d="M7.5805,27.0091c0,-4.7716 0.6679,-5.4078 2.3376,-5.4078c1.6697,0 2.3376,0.6925 2.3376,5.4078c0,4.1354 -0.6679,4.7716 -2.3376,4.7716c-1.6697,0 -2.3376,-0.6362 -2.3376,-4.7716z" data-paper-data="{&quot;strokeAlign&quot;:&quot;inner&quot;}" fill="#ffffff" stroke-width="5"></path><path d="M7.5805,11.2827c0,-2.0259 0.8336,-3.0384 2.3376,-3.0419c1.5565,-0.0036 2.3376,1.087 2.3376,3.0419c0,1.866 -0.8522,2.684 -2.3376,2.684c-1.4785,0 -2.3376,-0.818 -2.3376,-2.684z" data-paper-data="{&quot;strokeAlign&quot;:&quot;inner&quot;}" fill="#ffffff" stroke-width="1"></path></g></g></svg>