<svg width="20" height="40" viewBox="0 0 20 40" xmlns="http://www.w3.org/2000/svg" xmlns:xlink="http://www.w3.org/1999/xlink"><defs><clipPath id="clip-1"><rect x="0" y="0" width="20" height="40" fill-opacity="0" fill="#000000" stroke="none" stroke-width="1"></rect></clipPath><linearGradient x1="-3.263" y1="2.348" x2="5.1968" y2="37.1015" gradientUnits="userSpaceOnUse" id="color-1"><stop offset="0" stop-color="#000000"></stop><stop offset="1" stop-color="#4cd649"></stop></linearGradient></defs><g clip-path="url(#clip-1)" id="num8" fill="none" fill-rule="nonzero" stroke="none" stroke-width="none" stroke-linecap="butt" stroke-linejoin="miter" stroke-miterlimit="10" stroke-dasharray="" stroke-dashoffset="0" font-family="none" font-weight="none" font-size="none" text-anchor="none" style="mix-blend-mode: normal"><rect x="0" y="0" width="20" height="40" fill-opacity="0" fill="#000000" stroke="none" stroke-width="1"></rect><path d="M9.9914,1.5068c5.6,0 8.4,2.7935 8.4,8.3804c0,6.2079 -2.6371,7.6821 -2.6371,7.6821c0,0 2.6371,1.3852 2.6371,9.0788c0,6.9837 -1.4,11.8723 -8.4,11.8723c-7,0 -8.4,-4.8537 -8.4,-11.8723c0,-7.6821 3.0349,-9.0788 3.0349,-9.0788c0,0 -3.0349,-2.0951 -3.0349,-7.6821c0,-4.8886 2.8,-8.3804 8.4,-8.3804z" fill="url(#color-1)" stroke="#ffffff" stroke-width="3"></path><path d="M7.5805,27.0091c0,-4.7716 0.6679,-5.4078 2.3376,-5.4078c1.6697,0 2.3376,0.6925 2.3376,5.4078c0,4.1354 -0.6679,4.7716 -2.3376,4.7716c-1.6697,0 -2.3376,-0.6362 -2.3376,-4.7716z" data-paper-data="{&quot;strokeAlign&quot;:&quot;inner&quot;}" fill="#ffffff" stroke="none" stroke-width="5"></path><path d="M7.5805,11.2827c0,-2.0259 0.8336,-3.0384 2.3376,-3.0419c1.5565,-0.0036 2.3376,1.087 2.3376,3.0419c0,1.866 -0.8522,2.684 -2.3376,2.684c-1.4785,0 -2.3376,-0.818 -2.3376,-2.684z" fill="#ffffff" stroke="none" stroke-width="1"></path></g></svg>