<svg width="20" height="40" viewBox="0 0 20 40" xmlns="http://www.w3.org/2000/svg" xmlns:xlink="http://www.w3.org/1999/xlink"><defs><clipPath id="clip-1"><rect x="0" y="0" width="20" height="40" fill-opacity="0" fill="#000000" stroke="none" stroke-width="1"></rect></clipPath><linearGradient x1="7.376" y1="-0.8881" x2="15.3445" y2="35.1892" gradientUnits="userSpaceOnUse" id="color-1"><stop offset="0" stop-color="#000000"></stop><stop offset="1" stop-color="#4cd649"></stop></linearGradient></defs><g clip-path="url(#clip-1)" id="num9" fill="none" fill-rule="nonzero" stroke="none" stroke-width="none" stroke-linecap="butt" stroke-linejoin="miter" stroke-miterlimit="10" stroke-dasharray="" stroke-dashoffset="0" font-family="none" font-weight="none" font-size="none" text-anchor="none" style="mix-blend-mode: normal"><rect x="0" y="0" width="20" height="40" fill-opacity="0" fill="#000000" stroke="none" stroke-width="1"></rect><g stroke="#ffffff"><path d="M12.2391,36.4546c-0.0962,0.2287 -0.3107,0.3761 -0.5474,0.3761h-3.4872c-0.432,0 -0.722,-0.4687 -0.5488,-0.8871l3.6428,-15.9918c0.0866,-0.2092 -0.0584,-0.4436 -0.2744,-0.4436c0,0 -0.0324,0 -1.0039,0c-4.7568,0 -6.925,-2.0111 -6.925,-7.7107c0,-5.7347 2.7313,-8.4946 6.8893,-8.4946c6.0207,0 6.8893,4.3933 6.8893,8.4946c0,3.314 -0.5633,6.4442 -0.5633,6.4442z" data-paper-data="{&quot;strokeAlign&quot;:&quot;outer&quot;,&quot;rotation&quot;:180}" fill="url(#color-1)" stroke-width="3"></path><path d="M7.9232,11.8395c0,-2.3054 0.7477,-3.4577 2.0967,-3.4617c1.3961,-0.0041 2.0967,1.237 2.0967,3.4617c0,2.1235 -0.7644,3.0544 -2.0967,3.0544c-1.3262,0 -2.0967,-0.9309 -2.0967,-3.0544z" data-paper-data="{&quot;strokeAlign&quot;:&quot;inner&quot;}" fill="#ffffff" stroke-width="1"></path></g></g></svg>