<svg width="20" height="40" viewBox="0 0 20 40" xmlns="http://www.w3.org/2000/svg" xmlns:xlink="http://www.w3.org/1999/xlink"><defs><clipPath id="clip-1"><rect x="0" y="0" width="20" height="40" fill-opacity="0" fill="#000000" stroke="none" stroke-width="1"></rect></clipPath><linearGradient x1="12.929" y1="7.6806" x2="22.0926" y2="34.6833" gradientUnits="userSpaceOnUse" id="color-1"><stop offset="0" stop-color="#000000"></stop><stop offset="1" stop-color="#4cd649"></stop></linearGradient></defs><g clip-path="url(#clip-1)" id="numPlus" fill="none" fill-rule="nonzero" stroke="none" stroke-width="none" stroke-linecap="butt" stroke-linejoin="miter" stroke-miterlimit="10" stroke-dasharray="" stroke-dashoffset="0" font-family="none" font-weight="none" font-size="none" text-anchor="none" style="mix-blend-mode: normal"><rect x="0" y="0" width="20" height="40" fill-opacity="0" fill="#000000" stroke="none" stroke-width="1"></rect><path d="M3.6515,22.2018c-0.3606,0 -0.6529,-0.2923 -0.6529,-0.6529v-3.0977c0,-0.3606 0.2923,-0.6529 0.6529,-0.6529h3.3618c0.3606,0 0.6529,-0.2923 0.6529,-0.6529v-3.0977c0,-0.3606 0.2923,-0.6529 0.6529,-0.6529h3.3618c0.3606,0 0.6529,0.2923 0.6529,0.6529v3.0977c0,0.3606 0.2923,0.6529 0.6529,0.6529h3.3618c0.3606,0 0.6529,0.2923 0.6529,0.6529v3.0977c0,0.3606 -0.2923,0.6529 -0.6529,0.6529h-3.3618c-0.3606,0 -0.6529,0.2923 -0.6529,0.6529v3.0977c0,0.3606 -0.2923,0.6529 -0.6529,0.6529h-3.3618c-0.3606,0 -0.6529,-0.2923 -0.6529,-0.6529v-3.0977c0,-0.3606 -0.2923,-0.6529 -0.6529,-0.6529z" data-paper-data="{&quot;strokeAlign&quot;:&quot;outer&quot;}" fill="url(#color-1)" stroke="#ffffff" stroke-width="3"></path></g></svg>