<svg width="60" height="60" viewBox="0 0 60 60" xmlns="http://www.w3.org/2000/svg" xmlns:xlink="http://www.w3.org/1999/xlink"><defs><clipPath id="clip-1"><rect x="0" y="0" width="60" height="60" fill-opacity="0" fill="#000000" stroke="none" stroke-width="1"></rect></clipPath><linearGradient x1="22.1579" y1="3.4586" x2="34.2434" y2="53.2225" gradientUnits="userSpaceOnUse" id="color-1"><stop offset="0" stop-color="#000000"></stop><stop offset="1" stop-color="#4cd649"></stop></linearGradient><linearGradient x1="22.1579" y1="3.4586" x2="34.2434" y2="53.2225" gradientUnits="userSpaceOnUse" id="color-2"><stop offset="0" stop-color="#000000"></stop><stop offset="1" stop-color="#4cd649"></stop></linearGradient></defs><g clip-path="url(#clip-1)" id="plusOne" fill="none" fill-rule="nonzero" stroke="none" stroke-width="none" stroke-linecap="butt" stroke-linejoin="miter" stroke-miterlimit="10" stroke-dasharray="" stroke-dashoffset="0" font-family="none" font-weight="none" font-size="none" text-anchor="none" style="mix-blend-mode: normal"><rect x="0" y="0" width="60" height="60" fill-opacity="0" fill="#000000" stroke="none" stroke-width="1"></rect><g stroke="#ffffff" stroke-width="3"><path d="M6,34.1065c-0.5523,0 -1,-0.4477 -1,-1v-4.7443c0,-0.5523 0.4477,-1 1,-1h5.1487c0.5523,0 1,-0.4477 1,-1v-4.7443c0,-0.5523 0.4477,-1 1,-1h5.1487c0.5523,0 1,0.4477 1,1v4.7443c0,0.5523 0.4477,1 1,1h5.1487c0.5523,0 1,0.4477 1,1v4.7443c0,0.5523 -0.4477,1 -1,1h-5.1487c-0.5523,0 -1,0.4477 -1,1v4.7443c0,0.5523 -0.4477,1 -1,1h-5.1487c-0.5523,0 -1,-0.4477 -1,-1v-4.7443c0,-0.5523 -0.4477,-1 -1,-1z" data-paper-data="{&quot;strokeAlign&quot;:&quot;outer&quot;}" fill="url(#color-1)"></path><path d="M30.192,17.9464c-0.6176,0.1208 -1.192,-0.3521 -1.192,-0.9814v-6.0511c0,-0.4117 0.2523,-0.7812 0.6356,-0.9312l7.3137,-2.8618c0.1161,-0.0454 0.2397,-0.0688 0.3644,-0.0688h6.9363c0.5523,0 1,0.4477 1,1l0,35.4997c0,0.5523 0.4477,1 1,1h6.125c0.5523,0 1,0.4477 1,1v5.9482c0,0.5523 -0.4477,1 -1,1h-22.375c-0.5523,0 -1,-0.4477 -1,-1v-5.9482c0,-0.5523 0.4477,-1 1,-1h6.125c0.5523,0 1,-0.4477 1,-1l0,-25.7472c0,-0.6293 -0.5744,-1.1022 -1.192,-0.9814z" data-paper-data="{&quot;strokeAlign&quot;:&quot;outer&quot;}" fill="url(#color-2)"></path></g></g></svg>