<?xml version="1.0" encoding="UTF-8"?>
<svg id="Layer_1" xmlns="http://www.w3.org/2000/svg" xmlns:xlink="http://www.w3.org/1999/xlink" version="1.1" viewBox="0 0 100 100">
  <!-- Generator: Adobe Illustrator 29.5.1, SVG Export Plug-In . SVG Version: 2.1.0 Build 141)  -->
  <defs>
    <style>
      .st0, .st1, .st2 {
        fill: none;
      }

      .st1 {
        stroke: #c9c9c9;
        stroke-miterlimit: 10;
        stroke-width: 2px;
      }

      .st3 {
        clip-path: url(#clippath-1);
      }

      .st4 {
        fill: #c9c9c9;
      }

      .st5, .st6 {
        fill: #fff;
      }

      .st6, .st2 {
        stroke: #fff;
        stroke-miterlimit: 10;
      }

      .st7 {
        display: none;
      }

      .st8 {
        fill: #1a1a1a;
      }

      .st9 {
        clip-path: url(#clippath);
      }

      .st2 {
        stroke-width: 2px;
      }
    </style>
    <clipPath id="clippath">
      <rect class="st0" x="12.54" y="65.97" width="9.95" height="12.17"/>
    </clipPath>
    <clipPath id="clippath-1">
      <rect class="st0" x="15.61" y="63.78" width="9.95" height="12.17" transform="translate(-52.16 66.19) rotate(-70.68)"/>
    </clipPath>
  </defs>
  <g id="Layer_6" class="st7">
    <rect class="st8" x="-23.49" y="-10.77" width="154.5" height="126"/>
  </g>
  <path class="st4" d="M43.2,46.94c-3.58,3.27-7.41,9.26-2.1,12.6,5.05,3.18,12.53,5.88,18.31,6.86,13.59,2.64,13.27-12.06,10.35-21.74-3.03-5.91-10.94,13.09-22.29,2.14-1.75-1.68-4.08-.11-4.27.14Z"/>
  <path class="st4" d="M53.76,37.36c-6.09,2.78-2.43,8.75,2.46,8.49,7.13-.02,4.95-13.16-2.46-8.49Z"/>
  <g>
    <g class="st9">
      <path class="st4" d="M19.09,71.34c-3.89-5.48-3.91-6.24-5.52-4.64-.28.28-1.11,1.6-1.02,2.74.14,1.73.33,2.85,1.24,4.41,1.34,2.3,1.96,2.87,3.45,3.66,1.68.89,2.71.61,3.44.47,3.47-.67,1.38-2.45-1.59-6.64Z"/>
    </g>
    <g class="st3">
      <path class="st4" d="M19.39,71.13c-3.89-5.48-4.59-5.75-2.55-6.75.36-.17,1.88-.52,2.92-.06,1.59.7,2.58,1.25,3.75,2.63,1.72,2.03,2.06,2.8,2.31,4.46.29,1.88-.32,2.76-.7,3.4-1.77,3.07-2.76.51-5.73-3.68Z"/>
    </g>
  </g>
  <g>
    <g>
      <rect class="st0" x="16.64" y="45.81" width="7.06" height="13.63"/>
      <path class="st4" d="M22.68,53c1.18-6.61,1.71-7.16-.57-7.19-.4,0-1.92.33-2.67,1.19-1.14,1.31-1.8,2.23-2.27,3.97-.7,2.57-.67,3.41-.19,5.02.54,1.83,1.46,2.36,2.08,2.78,2.92,2.02,2.72-.72,3.62-5.77Z"/>
    </g>
    <g>
      <rect class="st0" x="18.72" y="50.06" width="13.63" height="7.06" transform="translate(-33.58 58.98) rotate(-69.73)"/>
      <path class="st4" d="M23.48,53.14c1.18-6.61.88-7.31,3.02-6.55.37.13,1.69.98,2.09,2.04.61,1.62.92,2.72.76,4.51-.24,2.65-.55,3.43-1.56,4.78-1.14,1.52-2.19,1.7-2.92,1.89-3.43.88-2.29-1.61-1.39-6.67Z"/>
    </g>
  </g>
  <ellipse class="st1" cx="67.25" cy="14.27" rx="1.75" ry="11" transform="translate(35.78 75.39) rotate(-74.73)"/>
  <ellipse class="st1" cx="68.76" cy="8.73" rx="1.5" ry="7.82" transform="translate(42.23 72.77) rotate(-74.73)"/>
  <path class="st5" d="M74.92,24.39c-4.99,3.24-17.59-.22-20.22-5.52-1.61,2.3-4.7,8.21-4.7,8.21,4.02,4.87,18.76,8.59,24.8,6.75,0,0,.33-6.64.12-9.44Z"/>
  <path class="st6" d="M46.49,86.53c-3.51-.97-9.34-3.51-12.88-6.82-.44,1.81-2.92,4.82-1.9,6.64,5.09,3.94,22.09,8.58,28.45,7.78,1.8-1.05,1.2-4.91,1.74-6.69-4.67,1.04-11.69.12-15.41-.91Z"/>
  <path class="st5" d="M52.24,67.6c-4.72-1.44-15.12-5.38-17.6-7.62.84,4.73,2.08,8.51,4.98,12.01-1.39,1.97-3.36,4.88-3.36,4.88,6.3,5.54,16.56,8.36,24.81,6.77,0,0-.21-3.35-.41-5.75,4.4-1.47,7.46-4.22,10.65-7.9-3.29.68-14.29-1.23-19.07-2.39Z"/>
  <path class="st2" d="M74.62,23.22c-.48-.75-1.22-1.3-1.96-1.8-.99-.67-2.4-1.27-3.92-1.8h0s-.05-.02-.08-.03c-.33-.11-.66-.22-1-.33-.08-.02-.16-.05-.24-.07-.19-.06-.38-.12-.57-.17-1.31-.4-2.79-.78-4.25-1.08,0,0,0,0,0,0h0c-1.64-.33-3.24-.55-4.46-.47-.89.05-1.81.15-2.6.56-1.34.69-2.08,2.14-2.75,3.49-5.99,12.01-13.69,23.21-18.26,35.82-.2.56-.4,1.14-.43,1.73-.02.49.08.98.2,1.46.77,2.98,1.83,5.88,3.11,8.68.52,1.14,1.12,2.27,2.03,3.13-2.9,3.84-6.36,7.91-8.23,12.34-.12.29-.25.61-.21.92.04.33.25.62.47.87,1.77,2.03,7.29,4.6,13.31,6.31,4.21,1.19,13.23,2.49,15.79,1.64.32-.11.65-.24.85-.51.2-.25.25-.58.29-.9.64-4.77-.08-10.48-.63-15.26,1.22-.27,2.11-.52,3.14-1.23,2.53-1.75,4.92-3.71,7.09-5.89.34-.35.68-.72.91-1.15.28-.53.4-1.12.51-1.71,2.47-13.18,1.53-26.75,2.47-40.13.11-1.51.21-3.13-.59-4.41Z"/>
</svg>