<?xml version="1.0" encoding="utf-8"?>
<!-- Generator: Adobe Adobe Illustrator 24.2.0, SVG Export Plug-In . SVG Version: 6.00 Build 0)  -->
<svg version="1.1" xmlns="http://www.w3.org/2000/svg" xmlns:xlink="http://www.w3.org/1999/xlink" x="0px" y="0px" width="100px"
	 height="100px" viewBox="0 0 100 100" style="enable-background:new 0 0 100 100;" xml:space="preserve">
<style type="text/css">
	.st0{display:none;}
	.st1{display:inline;fill:#1A1A1A;}
	.st2{display:inline;fill:none;stroke:#FFFFFF;stroke-miterlimit:10;}
	.st3{clip-path:url(#SVGID_2_);fill:#C9C9C9;}
	.st4{clip-path:url(#SVGID_4_);fill:#C9C9C9;}
	.st5{clip-path:url(#SVGID_6_);fill:#C9C9C9;}
	.st6{clip-path:url(#SVGID_8_);fill:#C9C9C9;}
	.st7{clip-path:url(#SVGID_10_);fill:#C9C9C9;}
	.st8{clip-path:url(#SVGID_12_);fill:#C9C9C9;}
	.st9{fill:#C9C9C9;}
	.st10{fill:#FFFFFF;}
	.st11{clip-path:url(#SVGID_14_);fill:#FFFFFF;}
	.st12{clip-path:url(#SVGID_16_);fill:#FFFFFF;}
	.st13{clip-path:url(#SVGID_18_);fill:#FFFFFF;}
	.st14{clip-path:url(#SVGID_20_);fill:#FFFFFF;}
	.st15{clip-path:url(#SVGID_22_);fill:none;stroke:#FFFFFF;stroke-width:3;stroke-miterlimit:10;}
	.st16{clip-path:url(#SVGID_24_);fill:none;stroke:#FFFFFF;stroke-width:3;stroke-miterlimit:10;}
	.st17{fill:none;stroke:#FFFFFF;stroke-width:3;stroke-miterlimit:10;}
	.st18{fill:#C9C9C9;stroke:#FFFFFF;stroke-width:2;stroke-miterlimit:10;}
	.st19{fill:none;stroke:#FFFFFF;stroke-miterlimit:10;}
	.st20{fill:none;stroke:#FFFFFF;stroke-width:4;stroke-miterlimit:10;}
	.st21{fill:none;stroke:#C9C9C9;stroke-width:2;stroke-miterlimit:10;}
	.st22{clip-path:url(#SVGID_26_);fill:#C9C9C9;}
	.st23{clip-path:url(#SVGID_28_);fill:#C9C9C9;}
	.st24{clip-path:url(#SVGID_30_);fill:#C9C9C9;}
	.st25{clip-path:url(#SVGID_32_);fill:#C9C9C9;}
	.st26{clip-path:url(#SVGID_34_);fill:#C9C9C9;}
	.st27{clip-path:url(#SVGID_36_);fill:#C9C9C9;}
	.st28{clip-path:url(#SVGID_38_);fill:#C9C9C9;}
	.st29{clip-path:url(#SVGID_40_);fill:#C9C9C9;}
	.st30{clip-path:url(#SVGID_42_);fill:#C9C9C9;}
	.st31{clip-path:url(#SVGID_44_);fill:#C9C9C9;}
	.st32{clip-path:url(#SVGID_46_);fill:#FFFFFF;}
	.st33{clip-path:url(#SVGID_48_);fill:#FFFFFF;}
	.st34{clip-path:url(#SVGID_50_);fill:#FFFFFF;stroke:#FFFFFF;stroke-miterlimit:10;}
	.st35{clip-path:url(#SVGID_52_);fill:#FFFFFF;stroke:#FFFFFF;stroke-miterlimit:10;}
	.st36{clip-path:url(#SVGID_54_);fill:#FFFFFF;}
	.st37{clip-path:url(#SVGID_56_);fill:#FFFFFF;}
	.st38{clip-path:url(#SVGID_58_);fill:none;stroke:#FFFFFF;stroke-width:2;stroke-miterlimit:10;}
	.st39{clip-path:url(#SVGID_60_);fill:none;stroke:#FFFFFF;stroke-width:2;stroke-miterlimit:10;}
	.st40{clip-path:url(#SVGID_62_);fill:none;stroke:#FFFFFF;stroke-width:2;stroke-miterlimit:10;}
	.st41{clip-path:url(#SVGID_64_);fill:none;stroke:#FFFFFF;stroke-width:2;stroke-miterlimit:10;}
</style>
<g id="Layer_4" class="st0">
</g>
<g id="Layer_6" class="st0">
	<rect x="-28.05" y="-12.25" class="st1" width="154.5" height="126"/>
</g>
<g id="Layer_7" class="st0">
	<path class="st2" d="M2.5,89.5v-79c0-4.42,3.58-8,8-8h79c4.42,0,8,3.58,8,8v79c0,4.42-3.58,8-8,8h-79C6.08,97.5,2.5,93.92,2.5,89.5
		z"/>
</g>
<g id="Layer_9">
	<g>
		<g>
			<defs>
				<rect id="SVGID_1_" x="20.97" y="23.85" width="27.24" height="21.96"/>
			</defs>
			<clipPath id="SVGID_2_">
				<use xlink:href="#SVGID_1_"  style="overflow:visible;"/>
			</clipPath>
			<path class="st3" d="M36.27,37.74c12.04-8.88,14.4-7.86,9.66-12.08c-0.69-0.62-3.28-1.99-5.83-1.79c-3.9,0.3-6.42,0.73-9.86,2.8
				c-5.07,3.06-6.31,4.47-7.96,7.89c-1.86,3.86-1.37,6.29-0.73,7.91C24.26,49.35,27.07,44.53,36.27,37.74z"/>
		</g>
		<g>
			<defs>
				
					<rect id="SVGID_3_" x="25.86" y="30.48" transform="matrix(0.2953 -0.9554 0.9554 0.2953 -11.7868 66.9431)" width="27.24" height="21.96"/>
			</defs>
			<clipPath id="SVGID_4_">
				<use xlink:href="#SVGID_3_"  style="overflow:visible;"/>
			</clipPath>
			<path class="st4" d="M37.2,39c12.04-8.88,11.76-11.44,14.39-5.66c0.38,0.84,0.93,3.72-0.01,6.1c-1.44,3.64-2.59,5.92-5.59,8.59
				c-4.42,3.94-6.14,4.71-9.88,5.27c-4.23,0.64-6.41-0.54-7.77-1.64C22.56,47.05,28,45.79,37.2,39z"/>
		</g>
	</g>
	<g>
		<g>
			<defs>
				<rect id="SVGID_5_" x="51.4" y="46.68" width="16.52" height="24.46"/>
			</defs>
			<clipPath id="SVGID_6_">
				<use xlink:href="#SVGID_5_"  style="overflow:visible;"/>
			</clipPath>
			<path class="st5" d="M63.29,60.52c5.17-11.74,6.31-12.61,1.93-13.76c-0.76-0.2-3.27-0.07-5.08,1.17
				c-2.77,1.89-4.45,3.29-6.12,6.3c-2.46,4.44-2.78,6.02-2.56,9.26c0.25,3.66,1.7,5.18,2.8,6.18C58.53,73.56,59.34,69.5,63.29,60.52
				z"/>
		</g>
		<g>
			<defs>
				
					<rect id="SVGID_7_" x="55.35" y="54.14" transform="matrix(0.7374 -0.6755 0.6755 0.7374 -24.4 62.0408)" width="24.46" height="16.52"/>
			</defs>
			<clipPath id="SVGID_8_">
				<use xlink:href="#SVGID_7_"  style="overflow:visible;"/>
			</clipPath>
			<path class="st6" d="M63.95,60.81c5.17-11.74,5.04-13.17,8.84-10.72c0.66,0.43,2.26,2.36,2.57,4.53c0.47,3.32,0.58,5.5-0.51,8.76
				c-1.61,4.82-2.56,6.12-5.09,8.14c-2.87,2.29-4.97,2.24-6.45,2.11C57.55,73.13,60,69.78,63.95,60.81z"/>
		</g>
	</g>
	<g>
		<g>
			<defs>
				<rect id="SVGID_9_" x="20.2" y="58.6" width="30.27" height="18.05"/>
			</defs>
			<clipPath id="SVGID_10_">
				<use xlink:href="#SVGID_9_"  style="overflow:visible;"/>
			</clipPath>
			<path class="st7" d="M34.29,71.2c8.88,4.34,14.48,7.91,16.06,3.28c0.29-0.86,0.11-3.73-1.24-5.75c-2.06-3.1-3.59-4.97-6.9-6.79
				c-4.88-2.68-10.58-3.62-14.15-3.27c-4.04,0.39-5.76,2.07-6.85,3.37C17.37,66.62,25.02,66.67,34.29,71.2z"/>
		</g>
		<g>
			<defs>
				
					<rect id="SVGID_11_" x="22.73" y="60.81" transform="matrix(0.7249 -0.6889 0.6889 0.7249 -43.5804 42.7719)" width="18.05" height="30.27"/>
			</defs>
			<clipPath id="SVGID_12_">
				<use xlink:href="#SVGID_11_"  style="overflow:visible;"/>
			</clipPath>
			<path class="st8" d="M33.63,72.73c9.26,3.45,15.71,5.05,13.45,9.38c-0.42,0.8-2.63,2.65-5.03,3.06
				c-3.67,0.64-6.08,0.83-9.67-0.32c-5.3-1.7-9.91-5.17-12.12-8c-2.5-3.2-2.47-5.6-2.27-7.29C18.66,63.62,23.96,69.13,33.63,72.73z"
				/>
		</g>
	</g>
	<g>
		<g>
			<polygon class="st9" points="72.2,19.58 66.93,19.58 66.93,14.32 60.18,14.32 60.18,19.58 54.91,19.58 54.91,26.34 60.18,26.34 
				60.18,31.6 66.93,31.6 66.93,26.34 72.2,26.34 			"/>
		</g>
	</g>
	<g>
		<g>
			<polygon class="st10" points="82.1,32.53 78.2,32.53 78.2,28.63 73.21,28.63 73.21,32.53 69.31,32.53 69.31,37.52 73.21,37.52 
				73.21,41.42 78.2,41.42 78.2,37.52 82.1,37.52 			"/>
		</g>
	</g>
</g>
<g id="Sell">
</g>
<g id="Promote">
</g>
<g id="Grind">
</g>
<g id="Brew">
</g>
</svg>
