<?xml version="1.0" encoding="utf-8"?>
<!-- Generator: Adobe Adobe Illustrator 24.2.0, SVG Export Plug-In . SVG Version: 6.00 Build 0)  -->
<svg version="1.1" xmlns="http://www.w3.org/2000/svg" xmlns:xlink="http://www.w3.org/1999/xlink" x="0px" y="0px" width="100px"
	 height="100px" viewBox="0 0 100 100" style="enable-background:new 0 0 100 100;" xml:space="preserve">
<style type="text/css">
	.st0{display:none;}
	.st1{display:inline;fill:#1A1A1A;}
	.st2{display:inline;fill:none;stroke:#FFFFFF;stroke-miterlimit:10;}
	.st3{clip-path:url(#SVGID_2_);fill:#C9C9C9;}
	.st4{clip-path:url(#SVGID_4_);fill:#C9C9C9;}
	.st5{clip-path:url(#SVGID_6_);fill:#C9C9C9;}
	.st6{clip-path:url(#SVGID_8_);fill:#C9C9C9;}
	.st7{clip-path:url(#SVGID_10_);fill:#C9C9C9;}
	.st8{clip-path:url(#SVGID_12_);fill:#C9C9C9;}
	.st9{fill:#C9C9C9;}
	.st10{fill:#FFFFFF;}
	.st11{clip-path:url(#SVGID_14_);fill:#FFFFFF;}
	.st12{clip-path:url(#SVGID_16_);fill:#FFFFFF;}
	.st13{clip-path:url(#SVGID_18_);fill:#FFFFFF;}
	.st14{clip-path:url(#SVGID_20_);fill:#FFFFFF;}
	.st15{clip-path:url(#SVGID_22_);fill:none;stroke:#FFFFFF;stroke-width:3;stroke-miterlimit:10;}
	.st16{clip-path:url(#SVGID_24_);fill:none;stroke:#FFFFFF;stroke-width:3;stroke-miterlimit:10;}
	.st17{fill:none;stroke:#FFFFFF;stroke-width:3;stroke-miterlimit:10;}
	.st18{fill:#C9C9C9;stroke:#FFFFFF;stroke-width:2;stroke-miterlimit:10;}
	.st19{fill:none;stroke:#FFFFFF;stroke-miterlimit:10;}
	.st20{fill:none;stroke:#FFFFFF;stroke-width:4;stroke-miterlimit:10;}
	.st21{fill:none;stroke:#C9C9C9;stroke-width:2;stroke-miterlimit:10;}
	.st22{clip-path:url(#SVGID_26_);fill:#C9C9C9;}
	.st23{clip-path:url(#SVGID_28_);fill:#C9C9C9;}
	.st24{clip-path:url(#SVGID_30_);fill:#C9C9C9;}
	.st25{clip-path:url(#SVGID_32_);fill:#C9C9C9;}
	.st26{clip-path:url(#SVGID_34_);fill:#C9C9C9;}
	.st27{clip-path:url(#SVGID_36_);fill:#C9C9C9;}
	.st28{clip-path:url(#SVGID_38_);fill:#C9C9C9;}
	.st29{clip-path:url(#SVGID_40_);fill:#C9C9C9;}
	.st30{clip-path:url(#SVGID_42_);fill:#C9C9C9;}
	.st31{clip-path:url(#SVGID_44_);fill:#C9C9C9;}
	.st32{clip-path:url(#SVGID_46_);fill:#FFFFFF;}
	.st33{clip-path:url(#SVGID_48_);fill:#FFFFFF;}
	.st34{clip-path:url(#SVGID_50_);fill:#FFFFFF;stroke:#FFFFFF;stroke-miterlimit:10;}
	.st35{clip-path:url(#SVGID_52_);fill:#FFFFFF;stroke:#FFFFFF;stroke-miterlimit:10;}
	.st36{clip-path:url(#SVGID_54_);fill:#FFFFFF;}
	.st37{clip-path:url(#SVGID_56_);fill:#FFFFFF;}
	.st38{clip-path:url(#SVGID_58_);fill:none;stroke:#FFFFFF;stroke-width:2;stroke-miterlimit:10;}
	.st39{clip-path:url(#SVGID_60_);fill:none;stroke:#FFFFFF;stroke-width:2;stroke-miterlimit:10;}
	.st40{clip-path:url(#SVGID_62_);fill:none;stroke:#FFFFFF;stroke-width:2;stroke-miterlimit:10;}
	.st41{clip-path:url(#SVGID_64_);fill:none;stroke:#FFFFFF;stroke-width:2;stroke-miterlimit:10;}
</style>
<g id="Layer_4" class="st0">
</g>
<g id="Layer_6" class="st0">
	<rect x="-27.25" y="-13" class="st1" width="154.5" height="126"/>
</g>
<g id="Layer_7" class="st0">
	<path class="st2" d="M2.5,89.5v-79c0-4.42,3.58-8,8-8h79c4.42,0,8,3.58,8,8v79c0,4.42-3.58,8-8,8h-79C6.08,97.5,2.5,93.92,2.5,89.5
		z"/>
</g>
<g id="Layer_9">
</g>
<g id="Sell">
</g>
<g id="Promote">
</g>
<g id="Grind">
	<g>
		<polygon class="st9" points="63.79,70.81 59.27,66.71 83.6,42.48 86.64,47.84 		"/>
		<path class="st19" d="M21.98,36.82c3.61-6.82,9.98-9.41,15.63-7.55c5.39,1.78,6.17,10.32,2.57,17.14
			c-3.61,6.82-10.6,10.2-15.63,7.55S18.37,43.64,21.98,36.82z"/>
		<path class="st10" d="M63.46,70.81c-11.96-5.26-24.53-10.84-36.49-16.1c-1.46-0.64-2.95-1.3-4.14-2.35
			c-2.39-2.1-3.27-5.55-2.84-8.7s1.38-6.32,3.25-8.89c2.09-2.88,5.52-5.35,9.06-5.71c1.8-0.18,3.55-0.25,5.31,0.21
			c2.23,0.59,4.53,1.12,6.76,1.71c5.63,1.48,11.97,2.96,17.9,4.52c3.37,0.89,8.41,1.85,12.84,3.54
			c-9.51,1.24-15.93,10.54-16.73,19.28C57.91,63.32,59.96,68.11,63.46,70.81z"/>
		<line class="st19" x1="24.54" y1="53.96" x2="64.68" y2="71.34"/>
		<line class="st19" x1="37.6" y1="29.28" x2="78.27" y2="39.54"/>
		
			<ellipse transform="matrix(0.4691 -0.8831 0.8831 0.4691 -10.7784 94.1901)" class="st17" cx="72.95" cy="56.06" rx="16.63" ry="12.75"/>
		<g>
			<polygon class="st10" points="30.2,70.49 36.9,63.3 47.66,67.96 41.24,75.58 			"/>
			<polygon class="st10" points="17.67,64.71 24.65,58.01 34.67,62.34 27.92,69.44 			"/>
			<polygon class="st10" points="8.35,73.67 16.08,66.24 26.38,71.06 18.87,78.95 			"/>
			<polygon class="st10" points="21.21,80.12 28.67,72.13 39.77,77.32 32.59,85.83 			"/>
		</g>
		<g>
			<polygon class="st10" points="71.58,22.09 78.37,14.64 88.12,16.71 81.71,24.37 			"/>
			<polygon class="st10" points="59.7,19.41 66.9,12.22 76.32,14.21 69.46,21.61 			"/>
			<polygon class="st10" points="49.94,29.14 58.04,21.06 67.88,23.31 60.15,31.64 			"/>
			<polygon class="st10" points="62.38,32.18 70.02,23.8 80.23,26.14 73,34.78 			"/>
		</g>
		<path class="st10" d="M72.87,55.68L72.87,55.68c0.21-1.01,1.21-1.66,2.22-1.45l4.63,0.98c1.01,0.21,1.66,1.21,1.45,2.22v0
			c-0.21,1.01-1.21,1.66-2.22,1.45l-4.63-0.98C73.3,57.69,72.65,56.69,72.87,55.68z"/>
		<path class="st10" d="M77.23,56.71l5-23.64c0.09-0.42,0.5-0.69,0.92-0.6l2.39,0.51c0.42,0.09,0.69,0.5,0.6,0.92l-5,23.64
			c-0.09,0.42-0.5,0.69-0.92,0.6l-2.39-0.51C77.41,57.54,77.14,57.13,77.23,56.71z"/>
		<path class="st10" d="M81.94,34.48l0.31-1.49c0.13-0.61,0.73-1,1.33-0.87l7.58,1.6c0.61,0.13,1,0.73,0.87,1.33l-0.31,1.49
			c-0.13,0.61-0.73,1-1.33,0.87l-7.58-1.6C82.2,35.69,81.81,35.09,81.94,34.48z"/>
	</g>
	<g>
		<g>
			<defs>
				<rect id="SVGID_25_" x="47.75" y="75.58" width="10.47" height="11.84"/>
			</defs>
			<clipPath id="SVGID_2_">
				<use xlink:href="#SVGID_25_"  style="overflow:visible;"/>
			</clipPath>
			<path class="st3" d="M54.31,82.57c4.12-5.31,4.84-5.55,2.84-6.63c-0.35-0.19-1.86-0.6-2.91-0.18c-1.62,0.63-2.63,1.14-3.86,2.46
				c-1.81,1.95-2.18,2.71-2.5,4.36c-0.37,1.87,0.2,2.77,0.55,3.43C50.07,89.15,51.16,86.63,54.31,82.57z"/>
		</g>
		<g>
			<defs>
				
					<rect id="SVGID_27_" x="50.05" y="78.59" transform="matrix(0.9688 -0.248 0.248 0.9688 -19.0373 16.4979)" width="11.84" height="10.47"/>
			</defs>
			<clipPath id="SVGID_4_">
				<use xlink:href="#SVGID_27_"  style="overflow:visible;"/>
			</clipPath>
			<path class="st4" d="M54.6,82.8c4.12-5.31,4.17-6.06,5.72-4.39c0.27,0.29,1.04,1.65,0.9,2.78c-0.21,1.72-0.45,2.83-1.43,4.35
				c-1.44,2.24-2.08,2.78-3.6,3.51c-1.72,0.82-2.73,0.49-3.46,0.32C49.29,88.54,51.46,86.86,54.6,82.8z"/>
		</g>
	</g>
	<g>
		<g>
			<defs>
				<rect id="SVGID_29_" x="66.86" y="82.73" width="6.85" height="10.09"/>
			</defs>
			<clipPath id="SVGID_6_">
				<use xlink:href="#SVGID_29_"  style="overflow:visible;"/>
			</clipPath>
			<path class="st5" d="M71.75,87.47c-2.31-4.75-2.23-5.34-3.69-4.3c-0.25,0.18-1.07,1.1-1.14,1.99c-0.12,1.36-0.11,2.25,0.4,3.58
				c0.75,1.95,1.15,2.48,2.2,3.28c1.19,0.91,2.02,0.82,2.61,0.8C74.91,92.74,73.52,91.1,71.75,87.47z"/>
		</g>
		<g>
			<defs>
				
					<rect id="SVGID_31_" x="69.74" y="81.33" transform="matrix(0.6165 -0.7873 0.7873 0.6165 -39.9518 90.7288)" width="6.85" height="10.09"/>
			</defs>
			<clipPath id="SVGID_8_">
				<use xlink:href="#SVGID_31_"  style="overflow:visible;"/>
			</clipPath>
			<path class="st6" d="M72.01,87.34c-2.31-4.75-2.83-5.05-1.11-5.56c0.3-0.09,1.52-0.16,2.27,0.33c1.14,0.75,1.84,1.3,2.57,2.52
				c1.08,1.79,1.24,2.43,1.22,3.76c-0.02,1.5-0.6,2.1-0.98,2.55C74.21,93.08,73.78,90.97,72.01,87.34z"/>
		</g>
	</g>
	<g>
		<g>
			<defs>
				<rect id="SVGID_33_" x="82.01" y="69.23" width="11.71" height="9.66"/>
			</defs>
			<clipPath id="SVGID_10_">
				<use xlink:href="#SVGID_33_"  style="overflow:visible;"/>
			</clipPath>
			<path class="st7" d="M86.93,75.47c5.35,3.63,5.62,4.31,6.54,2.32c0.16-0.35,0.46-1.82,0-2.81c-0.71-1.51-1.25-2.46-2.6-3.56
				c-1.98-1.62-2.73-1.93-4.34-2.14c-1.82-0.24-2.64,0.36-3.26,0.74C80.36,71.79,82.85,72.69,86.93,75.47z"/>
		</g>
		<g>
			<defs>
				
					<rect id="SVGID_35_" x="80.93" y="71.29" transform="matrix(0.9299 -0.3677 0.3677 0.9299 -22.3602 36.9426)" width="9.66" height="11.71"/>
			</defs>
			<clipPath id="SVGID_12_">
				<use xlink:href="#SVGID_35_"  style="overflow:visible;"/>
			</clipPath>
			<path class="st8" d="M86.73,75.76c5.35,3.63,6.07,3.64,4.56,5.23c-0.26,0.28-1.52,1.1-2.61,1.03c-1.67-0.1-2.75-0.26-4.26-1.11
				c-2.23-1.25-2.8-1.83-3.59-3.25c-0.89-1.6-0.64-2.59-0.52-3.3C80.9,71.01,82.64,72.99,86.73,75.76z"/>
		</g>
	</g>
</g>
<g id="Brew">
</g>
</svg>
