<?xml version="1.0" encoding="utf-8"?>
<!-- Generator: Adobe Adobe Illustrator 24.2.0, SVG Export Plug-In . SVG Version: 6.00 Build 0)  -->
<svg version="1.1" xmlns="http://www.w3.org/2000/svg" xmlns:xlink="http://www.w3.org/1999/xlink" x="0px" y="0px" width="100px"
	 height="100px" viewBox="0 0 100 100" style="enable-background:new 0 0 100 100;" xml:space="preserve">
<style type="text/css">
	.st0{display:none;}
	.st1{display:inline;fill:#1A1A1A;}
	.st2{display:inline;fill:none;stroke:#FFFFFF;stroke-miterlimit:10;}
	.st3{clip-path:url(#SVGID_2_);fill:#C9C9C9;}
	.st4{clip-path:url(#SVGID_4_);fill:#C9C9C9;}
	.st5{clip-path:url(#SVGID_6_);fill:#C9C9C9;}
	.st6{clip-path:url(#SVGID_8_);fill:#C9C9C9;}
	.st7{clip-path:url(#SVGID_10_);fill:#C9C9C9;}
	.st8{clip-path:url(#SVGID_12_);fill:#C9C9C9;}
	.st9{fill:#C9C9C9;}
	.st10{fill:#FFFFFF;}
	.st11{clip-path:url(#SVGID_14_);fill:#FFFFFF;}
	.st12{clip-path:url(#SVGID_16_);fill:#FFFFFF;}
	.st13{clip-path:url(#SVGID_18_);fill:#FFFFFF;}
	.st14{clip-path:url(#SVGID_20_);fill:#FFFFFF;}
	.st15{clip-path:url(#SVGID_22_);fill:none;stroke:#FFFFFF;stroke-width:3;stroke-miterlimit:10;}
	.st16{clip-path:url(#SVGID_24_);fill:none;stroke:#FFFFFF;stroke-width:3;stroke-miterlimit:10;}
	.st17{fill:none;stroke:#FFFFFF;stroke-width:3;stroke-miterlimit:10;}
	.st18{fill:#C9C9C9;stroke:#FFFFFF;stroke-width:2;stroke-miterlimit:10;}
	.st19{fill:none;stroke:#FFFFFF;stroke-miterlimit:10;}
	.st20{fill:none;stroke:#FFFFFF;stroke-width:4;stroke-miterlimit:10;}
	.st21{fill:none;stroke:#C9C9C9;stroke-width:2;stroke-miterlimit:10;}
	.st22{clip-path:url(#SVGID_26_);fill:#C9C9C9;}
	.st23{clip-path:url(#SVGID_28_);fill:#C9C9C9;}
	.st24{clip-path:url(#SVGID_30_);fill:#C9C9C9;}
	.st25{clip-path:url(#SVGID_32_);fill:#C9C9C9;}
	.st26{clip-path:url(#SVGID_34_);fill:#C9C9C9;}
	.st27{clip-path:url(#SVGID_36_);fill:#C9C9C9;}
	.st28{clip-path:url(#SVGID_38_);fill:#C9C9C9;}
	.st29{clip-path:url(#SVGID_40_);fill:#C9C9C9;}
	.st30{clip-path:url(#SVGID_42_);fill:#C9C9C9;}
	.st31{clip-path:url(#SVGID_44_);fill:#C9C9C9;}
	.st32{clip-path:url(#SVGID_46_);fill:#FFFFFF;}
	.st33{clip-path:url(#SVGID_48_);fill:#FFFFFF;}
	.st34{clip-path:url(#SVGID_50_);fill:#FFFFFF;stroke:#FFFFFF;stroke-miterlimit:10;}
	.st35{clip-path:url(#SVGID_52_);fill:#FFFFFF;stroke:#FFFFFF;stroke-miterlimit:10;}
	.st36{clip-path:url(#SVGID_54_);fill:#FFFFFF;}
	.st37{clip-path:url(#SVGID_56_);fill:#FFFFFF;}
	.st38{clip-path:url(#SVGID_58_);fill:none;stroke:#FFFFFF;stroke-width:2;stroke-miterlimit:10;}
	.st39{clip-path:url(#SVGID_60_);fill:none;stroke:#FFFFFF;stroke-width:2;stroke-miterlimit:10;}
	.st40{clip-path:url(#SVGID_62_);fill:none;stroke:#FFFFFF;stroke-width:2;stroke-miterlimit:10;}
	.st41{clip-path:url(#SVGID_64_);fill:none;stroke:#FFFFFF;stroke-width:2;stroke-miterlimit:10;}
</style>
<g id="Layer_4" class="st0">
</g>
<g id="Layer_6" class="st0">
	<rect x="-27.25" y="-12.92" class="st1" width="154.5" height="126"/>
</g>
<g id="Layer_7" class="st0">
	<path class="st2" d="M2.5,89.58v-79c0-4.42,3.58-8,8-8h79c4.42,0,8,3.58,8,8v79c0,4.42-3.58,8-8,8h-79
		C6.08,97.58,2.5,93.99,2.5,89.58z"/>
</g>
<g id="Layer_9">
</g>
<g id="Sell">
</g>
<g id="Promote">
	<g>
		<path class="st9" d="M22.92,37.51c-4.19-0.09-4.66-1.42-5.72-6.85c-1.44-7.36,3.34-16.01,11.49-15.63
			c5.22,0.24,8.84,2.93,9.46,6.65l-5.64,16.05L22.92,37.51z"/>
		<path class="st9" d="M10.73,52.56l6.61-13.59c1.35-2.77,4.69-3.93,7.46-2.58l0.53,0.26c2.77,1.35,3.93,4.69,2.58,7.46L21.3,57.7
			c-1.35,2.77-4.69,3.93-7.46,2.58l-0.53-0.26C10.54,58.67,9.38,55.33,10.73,52.56z"/>
		<path class="st10" d="M9.51,40.52l-4.48-3.94l17.54-9.16l8.11,6.9l-11.59,6.88C14.92,43.74,12.37,43.79,9.51,40.52z"/>
		<path class="st10" d="M39.86,29.1l-5.45-8.18l16.78-8.53l2.12,2.16c0.7,0.75,1.36,1.44,1.65,2.17c0.76,1.85-0.23,3.13-2.59,4.67
			c-0.3,0.2-0.59,0.44-0.9,0.63L39.86,29.1z"/>
		<path class="st9" d="M12.34,31.27C10.86,18.64,20.26,8.11,29,13.86c-5.88-1.22-14.88,4.72-13.54,16.11
			C15.48,29.98,14.98,30.38,12.34,31.27z"/>
		<g>
			<g>
				<g>
					
						<ellipse transform="matrix(0.6395 -0.7688 0.7688 0.6395 -10.4109 32.6104)" class="st10" cx="29.57" cy="27.41" rx="8.63" ry="6.25"/>
					<path class="st20" d="M46.18,41.23c23.56-27.82,43.19-11.49,20.13,16.74C42.75,85.79,23.12,69.45,46.18,41.23z"/>
					<path class="st10" d="M22.72,32.22c2.6,9.61,7.9,24.03,11.32,33.71c0.51,1.45,1.08,1.39,1.31-0.13
						c2.57-17.25,16.04-36.44,32.38-38.93c3.15-0.48,6.89-1.58,0.72-2.1c-9.12-0.77-27.78-3.29-34.42-4.66
						C26.87,18.3,25.02,26.45,22.72,32.22z"/>
				</g>
			</g>
		</g>
		<path class="st10" d="M45,50.32c0.73-2.39,8.08-10.91,9.91-12.11c0.24-0.16,2.93,1.52,5,3.28c2.15,1.83,1.26,5.35-1.7,8.91
			c-2.96,3.56-6.12,5.5-8.28,4.12C47.42,52.91,44.86,50.8,45,50.32z"/>
		
			<ellipse transform="matrix(0.6413 -0.7673 0.7673 0.6413 -22.1194 81.1261)" class="st21" cx="75.71" cy="64.22" rx="25.2" ry="7.97"/>
		
			<ellipse transform="matrix(0.6413 -0.7673 0.7673 0.6413 -19.9736 73.0264)" class="st21" cx="68.12" cy="57.88" rx="18.51" ry="6.65"/>
	</g>
</g>
<g id="Grind">
</g>
<g id="Brew">
</g>
</svg>
