<?xml version="1.0" encoding="utf-8"?>
<!-- Generator: Adobe Adobe Illustrator 24.2.0, SVG Export Plug-In . SVG Version: 6.00 Build 0)  -->
<svg version="1.1" xmlns="http://www.w3.org/2000/svg" xmlns:xlink="http://www.w3.org/1999/xlink" x="0px" y="0px" width="100px"
	 height="100px" viewBox="0 0 100 100" style="enable-background:new 0 0 100 100;" xml:space="preserve">
<style type="text/css">
	.st0{display:none;}
	.st1{display:inline;fill:#1A1A1A;}
	.st2{display:inline;fill:none;stroke:#FFFFFF;stroke-miterlimit:10;}
	.st3{clip-path:url(#SVGID_2_);fill:#C9C9C9;}
	.st4{clip-path:url(#SVGID_4_);fill:#C9C9C9;}
	.st5{clip-path:url(#SVGID_6_);fill:#C9C9C9;}
	.st6{clip-path:url(#SVGID_8_);fill:#C9C9C9;}
	.st7{clip-path:url(#SVGID_10_);fill:#C9C9C9;}
	.st8{clip-path:url(#SVGID_12_);fill:#C9C9C9;}
	.st9{fill:#C9C9C9;}
	.st10{fill:#FFFFFF;}
	.st11{clip-path:url(#SVGID_14_);fill:#FFFFFF;}
	.st12{clip-path:url(#SVGID_16_);fill:#FFFFFF;}
	.st13{clip-path:url(#SVGID_18_);fill:#FFFFFF;}
	.st14{clip-path:url(#SVGID_20_);fill:#FFFFFF;}
	.st15{clip-path:url(#SVGID_22_);fill:none;stroke:#FFFFFF;stroke-width:3;stroke-miterlimit:10;}
	.st16{clip-path:url(#SVGID_24_);fill:none;stroke:#FFFFFF;stroke-width:3;stroke-miterlimit:10;}
	.st17{fill:none;stroke:#FFFFFF;stroke-width:3;stroke-miterlimit:10;}
	.st18{fill:#C9C9C9;stroke:#FFFFFF;stroke-width:2;stroke-miterlimit:10;}
	.st19{fill:none;stroke:#FFFFFF;stroke-miterlimit:10;}
	.st20{fill:none;stroke:#FFFFFF;stroke-width:4;stroke-miterlimit:10;}
	.st21{fill:none;stroke:#C9C9C9;stroke-width:2;stroke-miterlimit:10;}
	.st22{clip-path:url(#SVGID_26_);fill:#C9C9C9;}
	.st23{clip-path:url(#SVGID_28_);fill:#C9C9C9;}
	.st24{clip-path:url(#SVGID_30_);fill:#C9C9C9;}
	.st25{clip-path:url(#SVGID_32_);fill:#C9C9C9;}
	.st26{clip-path:url(#SVGID_34_);fill:#C9C9C9;}
	.st27{clip-path:url(#SVGID_36_);fill:#C9C9C9;}
	.st28{clip-path:url(#SVGID_38_);fill:#C9C9C9;}
	.st29{clip-path:url(#SVGID_40_);fill:#C9C9C9;}
	.st30{clip-path:url(#SVGID_42_);fill:#C9C9C9;}
	.st31{clip-path:url(#SVGID_44_);fill:#C9C9C9;}
	.st32{clip-path:url(#SVGID_46_);fill:#FFFFFF;}
	.st33{clip-path:url(#SVGID_48_);fill:#FFFFFF;}
	.st34{clip-path:url(#SVGID_50_);fill:#FFFFFF;stroke:#FFFFFF;stroke-miterlimit:10;}
	.st35{clip-path:url(#SVGID_52_);fill:#FFFFFF;stroke:#FFFFFF;stroke-miterlimit:10;}
	.st36{clip-path:url(#SVGID_54_);fill:#FFFFFF;}
	.st37{clip-path:url(#SVGID_56_);fill:#FFFFFF;}
	.st38{clip-path:url(#SVGID_58_);fill:none;stroke:#FFFFFF;stroke-width:2;stroke-miterlimit:10;}
	.st39{clip-path:url(#SVGID_60_);fill:none;stroke:#FFFFFF;stroke-width:2;stroke-miterlimit:10;}
	.st40{clip-path:url(#SVGID_62_);fill:none;stroke:#FFFFFF;stroke-width:2;stroke-miterlimit:10;}
	.st41{clip-path:url(#SVGID_64_);fill:none;stroke:#FFFFFF;stroke-width:2;stroke-miterlimit:10;}
</style>
<g id="Layer_4" class="st0">
</g>
<g id="Layer_6" class="st0">
	<rect x="-24.25" y="-13" class="st1" width="154.5" height="126"/>
</g>
<g id="Layer_7" class="st0">
	<path class="st2" d="M2.5,89.5v-79c0-4.42,3.58-8,8-8h79c4.42,0,8,3.58,8,8v79c0,4.42-3.58,8-8,8h-79C6.08,97.5,2.5,93.92,2.5,89.5
		z"/>
</g>
<g id="Layer_9">
</g>
<g id="Sell">
	<g>
		<ellipse class="st9" cx="45.93" cy="29.69" rx="18.38" ry="5.61"/>
		<g>
			<g>
				<defs>
					<rect id="SVGID_13_" x="24.14" y="28.69" width="21.93" height="21.11"/>
				</defs>
				<clipPath id="SVGID_2_">
					<use xlink:href="#SVGID_13_"  style="overflow:visible;"/>
				</clipPath>
				<path style="clip-path:url(#SVGID_2_);fill:#FFFFFF;" d="M24.14,28.69c0.65,5.81,0.82,9.36,1.52,15.17
					c0.04,0.34,0.34,1.48,0.51,1.78c0.16,0.27,1.63,1.01,1.92,1.11c3.74,1.31,4.92,1.69,7.82,2.12c4.04,0.6,6.33,1.12,10.41,0.87
					c0.5-4.49,5.42-14.94-2.51-14.44c-3.51,0.22-6.99-0.87-10.3-2.07c-2.81-1.01-5.54-2.22-8.17-3.62
					C24.85,29.35,24.35,29.06,24.14,28.69z"/>
			</g>
			<g>
				<defs>
					<rect id="SVGID_15_" x="46.07" y="28.69" width="21.93" height="21.11"/>
				</defs>
				<clipPath id="SVGID_4_">
					<use xlink:href="#SVGID_15_"  style="overflow:visible;"/>
				</clipPath>
				<path style="clip-path:url(#SVGID_4_);fill:#FFFFFF;" d="M68,28.69c-0.65,5.81-0.82,9.36-1.52,15.17
					c-0.04,0.34-0.34,1.48-0.51,1.78c-0.16,0.27-1.63,1.01-1.92,1.11c-3.74,1.31-4.92,1.69-7.82,2.12
					c-4.04,0.6-6.33,1.12-10.41,0.87c-0.5-4.49-5.42-14.94,2.51-14.44c3.51,0.22,6.99-0.87,10.3-2.07c2.81-1.01,5.54-2.22,8.17-3.62
					C67.28,29.35,67.79,29.06,68,28.69z"/>
			</g>
		</g>
		<g>
			<g>
				<defs>
					<rect id="SVGID_17_" x="27.05" y="58.89" width="18.88" height="16.2"/>
				</defs>
				<clipPath id="SVGID_6_">
					<use xlink:href="#SVGID_17_"  style="overflow:visible;"/>
				</clipPath>
				<path style="clip-path:url(#SVGID_6_);fill:#FFFFFF;" d="M27.05,58.89c6.22,2.5,15.82,3.86,21.8,3.58
					c-0.23,3.67-0.36,6.07-1.18,9.34c-0.43,1.71-1.08,2.61-2.48,2.9c-3.52,0.72-7.22,0.34-10.69-0.58c0,0-3.33-0.82-4.92-1.86
					C29,71.88,28.37,70.7,28.27,70C27.74,66.5,27.49,62.99,27.05,58.89z"/>
			</g>
			<g>
				<defs>
					<rect id="SVGID_19_" x="45.93" y="58.89" width="18.88" height="16.2"/>
				</defs>
				<clipPath id="SVGID_8_">
					<use xlink:href="#SVGID_19_"  style="overflow:visible;"/>
				</clipPath>
				<path style="clip-path:url(#SVGID_8_);fill:#FFFFFF;" d="M64.8,58.89c-6.22,2.5-15.82,3.86-21.8,3.58
					c0.23,3.67,0.36,6.07,1.18,9.34c0.43,1.71,1.08,2.61,2.48,2.9c3.52,0.72,7.22,0.34,10.69-0.58c0,0,3.33-0.82,4.92-1.86
					c0.59-0.39,1.22-1.57,1.32-2.27C64.11,66.5,64.36,62.99,64.8,58.89z"/>
			</g>
		</g>
		<g>
			<g>
				<defs>
					<rect id="SVGID_21_" x="23.19" y="25.43" width="7.42" height="47.07"/>
				</defs>
				<clipPath id="SVGID_10_">
					<use xlink:href="#SVGID_21_"  style="overflow:visible;"/>
				</clipPath>
				
					<line style="clip-path:url(#SVGID_10_);fill:none;stroke:#FFFFFF;stroke-width:3;stroke-miterlimit:10;" x1="24.68" y1="25.57" x2="29.12" y2="72.36"/>
			</g>
			<g>
				<defs>
					<rect id="SVGID_23_" x="61.33" y="25.43" width="7.42" height="47.07"/>
				</defs>
				<clipPath id="SVGID_12_">
					<use xlink:href="#SVGID_23_"  style="overflow:visible;"/>
				</clipPath>
				
					<line style="clip-path:url(#SVGID_12_);fill:none;stroke:#FFFFFF;stroke-width:3;stroke-miterlimit:10;" x1="67.26" y1="25.57" x2="62.82" y2="72.36"/>
			</g>
		</g>
		<ellipse class="st17" cx="45.93" cy="25.52" rx="21.25" ry="9.12"/>
		<ellipse class="st10" cx="45.93" cy="72.27" rx="18.38" ry="6.38"/>
		<circle class="st9" cx="67.18" cy="68.04" r="15.56"/>
		
			<rect x="63.37" y="63.98" transform="matrix(0.7071 0.7071 -0.7071 0.7071 67.863 -27.7496)" class="st18" width="8.12" height="8.12"/>
		<circle class="st19" cx="67.43" cy="68.04" r="13.6"/>
		<g>
			<g>
				<polygon class="st9" points="87.78,32.17 82.91,32.17 82.91,27.3 76.66,27.3 76.66,32.17 71.78,32.17 71.78,38.43 76.66,38.43 
					76.66,43.3 82.91,43.3 82.91,38.43 87.78,38.43 				"/>
			</g>
		</g>
		<g>
			<g>
				<polygon class="st10" points="93.7,46.21 90.09,46.21 90.09,42.6 85.47,42.6 85.47,46.21 81.86,46.21 81.86,50.83 85.47,50.83 
					85.47,54.44 90.09,54.44 90.09,50.83 93.7,50.83 				"/>
			</g>
		</g>
	</g>
</g>
<g id="Promote">
</g>
<g id="Grind">
</g>
<g id="Brew">
</g>
</svg>
